<svg width="19" height="18" viewBox="0 0 19 18" fill="none" xmlns="http://www.w3.org/2000/svg">
<path d="M4.48334 2.25929C3.33891 2.3872 2.42286 3.29045 2.29045 4.42255C1.93476 7.4637 1.93476 10.5359 2.29045 13.5771C2.42286 14.7092 3.33891 15.6124 4.48334 15.7404C7.46017 16.0731 10.5398 16.0731 13.5166 15.7404C14.6611 15.6124 15.5771 14.7092 15.7095 13.5771C15.9651 11.3919 16.037 9.19074 15.9253 6.99656C15.9224 6.93989 15.9436 6.88462 15.9837 6.84451L17.0225 5.80573C17.1427 5.68549 17.3482 5.76068 17.3609 5.93024C17.557 8.53515 17.5031 11.1542 17.1994 13.7513C16.9845 15.5883 15.5096 17.0269 13.6832 17.2311C10.5957 17.5761 7.40429 17.5761 4.31673 17.2311C2.49035 17.0269 1.01545 15.5883 0.800605 13.7513C0.431374 10.5944 0.431374 7.40523 0.800605 4.2483C1.01545 2.41134 2.49035 0.9727 4.31673 0.768575C7.40429 0.423496 10.5957 0.423496 13.6832 0.768575C14.3265 0.840468 14.9261 1.0655 15.4425 1.40713C15.5441 1.47436 15.5542 1.61719 15.468 1.70334L14.6652 2.50623C14.5995 2.5719 14.4976 2.58295 14.4158 2.53908C14.1423 2.39259 13.8385 2.29527 13.5166 2.25929C10.5398 1.92659 7.46017 1.92659 4.48334 2.25929Z" fill="url(#paint0_linear_928_48)"/>
<path d="M18.0303 3.03015C18.3232 2.73726 18.3232 2.26239 18.0303 1.96949C17.7374 1.6766 17.2625 1.6766 16.9696 1.96949L8.49997 10.4392L6.0303 7.96949C5.73741 7.6766 5.26253 7.6766 4.96964 7.96949C4.67675 8.26239 4.67675 8.73726 4.96964 9.03016L7.96964 12.0302C8.26253 12.323 8.73741 12.323 9.0303 12.0302L18.0303 3.03015Z" fill="url(#paint1_linear_928_48)"/>
<defs>
<linearGradient id="paint0_linear_928_48" x1="3.70718" y1="17.4899" x2="3.70718" y2="0.509766" gradientUnits="userSpaceOnUse">
<stop stop-color="#F96E09"/>
<stop offset="1" stop-color="#ECD823"/>
</linearGradient>
<linearGradient id="paint1_linear_928_48" x1="3.70718" y1="17.4899" x2="3.70718" y2="0.509766" gradientUnits="userSpaceOnUse">
<stop stop-color="#F96E09"/>
<stop offset="1" stop-color="#ECD823"/>
</linearGradient>
</defs>
</svg>
