<svg width="12" height="12" viewBox="0 0 12 12" fill="none" xmlns="http://www.w3.org/2000/svg">
<path d="M6.50002 2.6665C6.50002 2.39036 6.27616 2.1665 6.00002 2.1665C5.72388 2.1665 5.50002 2.39036 5.50002 2.6665V5.99984C5.50002 6.17223 5.58883 6.33247 5.73502 6.42384L7.73502 7.67384C7.96919 7.82019 8.27766 7.74901 8.42402 7.51484C8.57038 7.28067 8.49919 6.97219 8.26502 6.82584L6.50002 5.72271V2.6665Z" fill="url(#paint0_linear_928_53)"/>
<path fill-rule="evenodd" clip-rule="evenodd" d="M6.00002 0.166504C2.77836 0.166504 0.166687 2.77818 0.166687 5.99984C0.166687 9.2215 2.77836 11.8332 6.00002 11.8332C9.22168 11.8332 11.8334 9.2215 11.8334 5.99984C11.8334 2.77818 9.22168 0.166504 6.00002 0.166504ZM1.16669 5.99984C1.16669 3.33046 3.33064 1.1665 6.00002 1.1665C8.6694 1.1665 10.8334 3.33046 10.8334 5.99984C10.8334 8.66921 8.6694 10.8332 6.00002 10.8332C3.33064 10.8332 1.16669 8.66921 1.16669 5.99984Z" fill="url(#paint1_linear_928_53)"/>
<defs>
<linearGradient id="paint0_linear_928_53" x1="2.26193" y1="11.8332" x2="2.26193" y2="0.166504" gradientUnits="userSpaceOnUse">
<stop stop-color="#F96E09"/>
<stop offset="1" stop-color="#ECD823"/>
</linearGradient>
<linearGradient id="paint1_linear_928_53" x1="2.26193" y1="11.8332" x2="2.26193" y2="0.166504" gradientUnits="userSpaceOnUse">
<stop stop-color="#F96E09"/>
<stop offset="1" stop-color="#ECD823"/>
</linearGradient>
</defs>
</svg>
