<svg width="14" height="15" viewBox="0 0 14 15" fill="none" xmlns="http://www.w3.org/2000/svg">
<path fill-rule="evenodd" clip-rule="evenodd" d="M6.1558 1.68349C6.84499 1.02217 7.93315 1.02217 8.62235 1.68349L12.2849 5.19797C12.3747 5.28408 12.435 5.39624 12.4575 5.51857C12.8962 7.91087 12.9285 10.36 12.5533 12.7631L12.4642 13.3335H10.1078V8.41616C10.1078 8.08824 9.84199 7.82241 9.51407 7.82241H5.26407C4.93615 7.82241 4.67032 8.08824 4.67032 8.41616V13.3335H2.31396L2.22488 12.7631C1.8496 10.36 1.88198 7.91087 2.32067 5.51857C2.3431 5.39624 2.40346 5.28408 2.4932 5.19797L6.1558 1.68349ZM9.44453 0.826658C8.29587 -0.275553 6.48228 -0.275553 5.33361 0.826658L1.67101 4.34113C1.4014 4.59984 1.22004 4.93685 1.15264 5.30439C0.689889 7.82792 0.65573 10.4114 1.0516 12.9463L1.19471 13.8626C1.25389 14.2416 1.58028 14.521 1.96383 14.521H5.26407C5.59199 14.521 5.85782 14.2551 5.85782 13.9272V9.00991H8.92032V13.9272C8.92032 14.2551 9.18615 14.521 9.51407 14.521H12.8143C13.1979 14.521 13.5243 14.2416 13.5834 13.8626L13.7265 12.9463C14.1224 10.4114 14.0883 7.82792 13.6255 5.30439C13.5581 4.93685 13.3767 4.59984 13.1071 4.34113L9.44453 0.826658Z" fill="url(#paint0_linear_0_845)"/>
<defs>
<linearGradient id="paint0_linear_0_845" x1="14.3376" y1="11.8588" x2="-1.2998" y2="11.0661" gradientUnits="userSpaceOnUse">
<stop stop-color="#F96E09"/>
<stop offset="1" stop-color="#ECD823"/>
</linearGradient>
</defs>
</svg>
