<?xml version="1.0" encoding="utf-8"?>
<!-- Generator: Adobe Illustrator 24.0.1, SVG Export Plug-In . SVG Version: 6.00 Build 0)  -->
<svg version="1.1" id="Слой_1" xmlns="http://www.w3.org/2000/svg" xmlns:xlink="http://www.w3.org/1999/xlink" x="0px" y="0px"
	 viewBox="0 0 588.8 304.5" style="enable-background:new 0 0 588.8 304.5;" xml:space="preserve">
<style type="text/css">
	.st0{fill:url(#SVGID_1_);}
	.st1{fill:url(#SVGID_2_);}
	.st2{fill:url(#SVGID_3_);}
	.st3{fill:url(#SVGID_4_);}
	.st4{fill:url(#SVGID_5_);}
	.st5{fill:url(#SVGID_6_);}
	.st6{fill:#FFFFFF;}
</style>
<g>
	<g>
		
			<linearGradient id="SVGID_1_" gradientUnits="userSpaceOnUse" x1="10674.9482" y1="195.013" x2="10674.8545" y2="234.9595" gradientTransform="matrix(-1 0 0 -1 10728.4043 306)">
			<stop  offset="2.550000e-02" style="stop-color:#FFD300"/>
			<stop  offset="8.680000e-02" style="stop-color:#FECB06"/>
			<stop  offset="0.4762" style="stop-color:#F79D29"/>
			<stop  offset="0.6714" style="stop-color:#F48B37"/>
		</linearGradient>
		<path class="st0" d="M45.1,62.7c0,0,10,1.4,15,11.4c2.8,5.7,1.8,41,1.6,46.1c0,0.7-0.7,1.3-1.5,1.3c-0.5,0-1-0.3-1.8-0.6
			c-3.3-1.2-7.4-3-9.8-4.5c-1.6-1-3.5-2.2-3.5-4.4C45.1,109.7,45.1,62.7,45.1,62.7z"/>
	</g>
	<g>
		
			<linearGradient id="SVGID_2_" gradientUnits="userSpaceOnUse" x1="44.9794" y1="74.4" x2="45.0701" y2="74.4" gradientTransform="matrix(1 0 0 -1 0 306)">
			<stop  offset="0" style="stop-color:#FFD300"/>
			<stop  offset="1" style="stop-color:#F48B37"/>
		</linearGradient>
		<path class="st1" d="M45.1,231.6L45.1,231.6C45,231.6,45,231.6,45.1,231.6L45.1,231.6z"/>
		
			<linearGradient id="SVGID_3_" gradientUnits="userSpaceOnUse" x1="69.8686" y1="194.9669" x2="150.695" y2="54.9714" gradientTransform="matrix(1 0 0 -1 0 306)">
			<stop  offset="0" style="stop-color:#F47337"/>
			<stop  offset="1" style="stop-color:#FFD300"/>
		</linearGradient>
		<path class="st2" d="M148.7,75.1c-34.1,0-61.7,27.6-61.7,61.6v27.4c0,1.1,0,2.1,0,3.2l-3.3,0c-0.4,0-0.8,0-1.1,0
			c-4-15.2-19.2-26.5-37.5-26.5l0,0v65v24.3v1.4c0,0,0,0,0,0c0.7,20.6,17.7,37.1,38.6,37.1h26c21.3,0,38.6-17.3,38.6-38.5v-4.5
			c0.1,0,0.3,0,0.4,0l0,0L148.7,75.1L148.7,75.1z"/>
	</g>
	
		<linearGradient id="SVGID_4_" gradientUnits="userSpaceOnUse" x1="65.2234" y1="164.9398" x2="63.8004" y2="42.8384" gradientTransform="matrix(1 0 0 -1 0 306)">
		<stop  offset="0" style="stop-color:#FF5717"/>
		<stop  offset="1" style="stop-color:#FF8016"/>
	</linearGradient>
	<path class="st3" d="M45.1,140.8h0.2c21.6,0,39.1,15.9,39.1,35.5v55.2c0,13.5-8.4,25.7-20.7,31.7"/>
	
		<linearGradient id="SVGID_5_" gradientUnits="userSpaceOnUse" x1="11063.4717" y1="165.2639" x2="11062.0439" y2="42.7338" gradientTransform="matrix(-1 0 0 -1 11116.5957 306)">
		<stop  offset="0" style="stop-color:#FF5717"/>
		<stop  offset="1" style="stop-color:#FF8016"/>
	</linearGradient>
	<path class="st4" d="M45.1,140.8c-0.3,14.4,0,17.5,0,37.1v53.6c0.9,17.1,11.5,28,18.6,31.5"/>
	
		<linearGradient id="SVGID_6_" gradientUnits="userSpaceOnUse" x1="-516.0751" y1="254.7715" x2="-516.1447" y2="284.5386" gradientTransform="matrix(1 0 0 -1 609.1165 306)">
		<stop  offset="2.550000e-02" style="stop-color:#FFD300"/>
		<stop  offset="8.680000e-02" style="stop-color:#FECB06"/>
		<stop  offset="0.4762" style="stop-color:#F79D29"/>
		<stop  offset="0.6714" style="stop-color:#F48B37"/>
	</linearGradient>
	<path class="st5" d="M99.1,15.3c0,0-7.2,1-10.8,8.5c-2,4.2-1.3,30.5-1.2,34.3c0,0.5,0.5,1,1.1,0.9c0.3,0,0.7-0.3,1.3-0.5
		c2.4-0.9,5.4-2.3,7.1-3.3c1.1-0.7,2.6-1.6,2.6-3.3C99.1,50.2,99.1,15.3,99.1,15.3z"/>
</g>
<g>
	<path class="st6" d="M188.5,137.8c4.7-1,12-1.7,19.5-1.7c10.7,0,17.6,1.8,22.7,6c4.3,3.2,6.9,8.1,6.9,14.6c0,8-5.3,15-14,18.1v0.3
		c7.9,2,17.1,8.5,17.1,20.7c0,7.1-2.8,12.5-7,16.6c-5.8,5.3-15.1,7.7-28.6,7.7c-7.4,0-13-0.5-16.6-1L188.5,137.8L188.5,137.8z
		 M199.1,171.6h9.7c11.3,0,17.9-5.9,17.9-13.9c0-9.7-7.4-13.5-18.2-13.5c-4.9,0-7.7,0.4-9.5,0.7L199.1,171.6L199.1,171.6z
		 M199.1,211.2c2.1,0.4,5.2,0.5,9,0.5c11.1,0,21.2-4.1,21.2-16.1c0-11.3-9.7-15.9-21.4-15.9h-8.8L199.1,211.2L199.1,211.2z"/>
	<path class="st6" d="M266.7,143.3c0.1,3.7-2.6,6.6-6.9,6.6c-3.8,0-6.5-2.9-6.5-6.6c0-3.8,2.8-6.7,6.7-6.7
		C264.1,136.6,266.7,139.5,266.7,143.3z M254.7,219.3V160h10.8v59.4H254.7z"/>
	<path class="st6" d="M337.2,189.2c0,21.9-15.2,31.5-29.6,31.5c-16.1,0-28.5-11.8-28.5-30.5c0-19.9,13-31.5,29.5-31.5
		C325.6,158.6,337.2,171,337.2,189.2z M290,189.8c0,13,7.5,22.8,18,22.8c10.3,0,18-9.7,18-23.1c0-10.1-5-22.8-17.8-22.8
		S290,178.5,290,189.8z"/>
	<path class="st6" d="M350.8,176.1c0-6.1-0.1-11.2-0.5-16.1h9.6l0.6,9.8h0.3c3-5.6,9.8-11.2,19.6-11.2c8.2,0,21,4.9,21,25.3v35.4
		h-10.8v-34.2c0-9.6-3.6-17.5-13.8-17.5c-7.1,0-12.6,5-14.5,11c-0.5,1.4-0.7,3.2-0.7,5v35.7h-10.8V176.1z"/>
	<path class="st6" d="M431,143.3c0.1,3.7-2.6,6.6-6.9,6.6c-3.8,0-6.5-2.9-6.5-6.6c0-3.8,2.8-6.7,6.8-6.7
		C428.4,136.6,431,139.5,431,143.3z M419,219.3V160h10.8v59.4H419z"/>
	<path class="st6" d="M458.4,187.2h0.3c1.5-2.1,3.6-4.7,5.3-6.7l17.4-20.5h13l-23,24.4l26.2,34.9h-13.1l-20.5-28.4l-5.5,6.1v22.3
		h-10.7v-87.1h10.7L458.4,187.2L458.4,187.2z"/>
	<path class="st6" d="M540.4,219.3l-0.9-7.5h-0.4c-3.3,4.7-9.7,8.8-18.2,8.8c-12,0-18.2-8.5-18.2-17c0-14.4,12.8-22.2,35.7-22.1
		v-1.2c0-4.9-1.3-13.7-13.5-13.7c-5.5,0-11.3,1.7-15.5,4.4l-2.5-7.1c4.9-3.2,12-5.3,19.5-5.3c18.2,0,22.6,12.4,22.6,24.3v22.2
		c0,5.1,0.3,10.2,1,14.2H540.4z M538.8,189.1c-11.8-0.3-25.2,1.8-25.2,13.4c0,7,4.7,10.3,10.2,10.3c7.7,0,12.7-4.9,14.4-9.9
		c0.4-1.1,0.6-2.3,0.6-3.4L538.8,189.1L538.8,189.1z"/>
</g>
</svg>
