<svg width="13" height="12" viewBox="0 0 13 12" fill="none" xmlns="http://www.w3.org/2000/svg">
<path fill-rule="evenodd" clip-rule="evenodd" d="M1.89353 4.57094C3.08507 7.16554 5.20539 9.22832 7.84123 10.346L7.84956 10.3496L8.35877 10.5765C9.00719 10.8654 9.76934 10.6603 10.1851 10.0849L11.0347 8.90904C11.0865 8.83721 11.0732 8.73734 11.0042 8.68171L9.52105 7.48518C9.44732 7.4257 9.3389 7.43955 9.2825 7.51566L8.70525 8.29459C8.56507 8.48376 8.3119 8.54949 8.09739 8.45241C6.12645 7.56045 4.54265 5.97665 3.65069 4.00571C3.55362 3.7912 3.61935 3.53804 3.80852 3.39785L4.58744 2.82061C4.66355 2.7642 4.6774 2.65579 4.61792 2.58206L3.42122 1.09869C3.36561 1.02975 3.26577 1.01636 3.19395 1.06821L2.01176 1.92165C1.43257 2.33977 1.22859 3.10834 1.52423 3.75864L1.89313 4.57008C1.89326 4.57037 1.89339 4.57065 1.89353 4.57094ZM7.44663 11.2649C4.58261 10.0492 2.27904 7.80717 0.984342 4.98734L0.983562 4.98564L0.613894 4.1725C0.121161 3.08866 0.461113 1.80772 1.42643 1.11085L2.60863 0.257408C3.11138 -0.10553 3.81019 -0.0117937 4.19953 0.470802L5.39622 1.95416C5.81259 2.47028 5.71561 3.22921 5.18284 3.62404L4.7365 3.9548C5.49045 5.41773 6.68537 6.61266 8.1483 7.3666L8.47907 6.92026C8.8739 6.38748 9.63283 6.29051 10.1489 6.70688L11.6321 7.90341C12.1148 8.29286 12.2085 8.99195 11.8452 9.49469L10.9956 10.6705C10.3027 11.6295 9.03249 11.9715 7.95179 11.49L7.44663 11.2649Z" fill="url(#paint0_linear_928_5)"/>
<defs>
<linearGradient id="paint0_linear_928_5" x1="2.48658" y1="11.7066" x2="2.48658" y2="0.0366211" gradientUnits="userSpaceOnUse">
<stop stop-color="#F96E09"/>
<stop offset="1" stop-color="#ECD823"/>
</linearGradient>
</defs>
</svg>
