<?xml version="1.0" encoding="utf-8"?>
<!-- Generator: Adobe Illustrator 24.0.1, SVG Export Plug-In . SVG Version: 6.00 Build 0)  -->
<svg version="1.1" id="Слой_1" xmlns="http://www.w3.org/2000/svg" xmlns:xlink="http://www.w3.org/1999/xlink" x="0px" y="0px"
	 viewBox="0 0 682.39 266.9" style="enable-background:new 0 0 682.39 266.9;" xml:space="preserve">
<style type="text/css">
	.st0{fill-rule:evenodd;clip-rule:evenodd;fill:#00B33C;}
	.st1{fill:#1A1A18;}
	.st2{fill:#FFFFFF;}
	.st3{fill:#F9AE00;}
	.st4{fill:#0CA3E2;}
	.st5{fill:#0900A5;}
	.st6{fill:#FF0303;}
	.st7{fill:none;}
	.st8{fill:none;stroke:#000000;stroke-width:2;stroke-miterlimit:10;}
</style>
<g>
	<rect x="69.77" y="54.22" class="st1" width="538.58" height="151.75"/>
	<path class="st2" d="M457.21,133.63V117.7h-5.92v24.74h4.98l14.25-16.07v16.07h5.92V117.7h-4.97L457.21,133.63z M520.61,133.77
		V117.7h-5.92v24.74h4.97l14.25-16.2v16.2h5.92V117.7h-5.24L520.61,133.77z M502.05,127.31h-12.98v-9.61h-5.92v24.74h5.92v-9.68
		h12.98v9.68h5.92V117.7h-5.92V127.31z M429.99,117.7l-14.19,24.74h6.99l9.35-16.34l9.41,16.34h7.33L434.7,117.7H429.99z
		 M566.46,117.7l-13.99,16.07V117.7h-5.91v24.74h4.98l14.25-16.2v16.2h5.92V117.7H566.46z M422.73,117.7h-27.56v5.44h24.4
		L422.73,117.7z M395.17,127.31v5.44h18.89l3.16-5.44H395.17z M264.47,117.7h-27.56v5.44h24.4L264.47,117.7z M214.92,112.25h-4.84
		l-14.18,24.74h-3.56v12.71h5.64v-7.26h29.04v7.26h5.65v-12.71h-3.56L214.92,112.25z M202.95,136.99l9.34-16.34l9.41,16.34H202.95z
		 M305.55,117.09c-9.88,0-14.59,6.05-14.59,12.84c0,7.06,4.57,12.84,14.59,12.84c4.37,0,14.45-2.02,14.45-12.84
		C320.01,122.88,315.5,117.09,305.55,117.09z M305.48,137.33c-5.71,0-8.13-3.29-8.13-7.33c0-4.44,2.76-7.4,8.13-7.4
		c6.05,0,8.13,2.96,8.13,7.4C313.62,135.31,309.65,137.33,305.48,137.33z M271.74,117.7l-14.18,24.74h6.99l9.35-16.34l9.41,16.34
		h7.33l-14.18-24.74H271.74z M382.59,142.44h5.85V117.7h-5.85V142.44z M371.43,126.57h-9.01v-8.87h-5.92v24.74h4.64h1.28h8.94
		c4.03,0,8.2-2.22,8.2-8.07C379.57,126.71,374.19,126.57,371.43,126.57z M371.1,137.2h-8.67v-5.51h8.67c1.01,0,2.56,0.27,2.56,2.76
		C373.65,136.72,372.38,137.2,371.1,137.2z M236.91,127.31v5.44h18.89l3.16-5.44H236.91z M395.17,142.44h13.38l3.09-5.45h-16.47
		V142.44z M345.88,127.84c1.57-0.67,2.9-1.74,2.9-4.43c0-5.11-4.3-5.71-7.33-5.71h-16v24.74h16.27c7.46,0,9.01-4.1,9.01-7.87
		C350.73,130.33,348.32,128.58,345.88,127.84z M331.3,122.94h9.48c1.41,0,2.02,0.74,2.02,2.15c0,1.48-0.94,2.22-2.02,2.22h-9.48
		V122.94z M341.72,137.2H331.3v-5.31h10.42c1.68,0,2.89,0.4,2.89,2.62C344.61,136.25,343.87,137.2,341.72,137.2z M236.91,142.44
		h13.38l3.09-5.45h-16.47V142.44z"/>
	<path class="st3" d="M152.34,123.79l-24.59-18.25l-6.01,10.4l28.11,12.17L152.34,123.79z M156.13,117.25l-21.08-24.34l-5.96,10.33
		l24.59,18.26L156.13,117.25z M160.64,109.42L143.08,79l-6.63,11.49l21.08,24.34L160.64,109.42z M113.05,131.01l-6.63,11.47h35.13
		l3.12-5.4L113.05,131.01z M144.61,142.48h9.35l8.21-14.23l8.21,14.23h9.35l-17.56-30.42L144.61,142.48z M148.52,130.41
		l-28.11-12.16l-5.97,10.34l31.62,6.08L148.52,130.41z"/>
</g>
</svg>
