<?xml version="1.0" encoding="utf-8"?>
<!-- Generator: Adobe Illustrator 24.0.1, SVG Export Plug-In . SVG Version: 6.00 Build 0)  -->
<svg version="1.1" id="Слой_1" xmlns="http://www.w3.org/2000/svg" xmlns:xlink="http://www.w3.org/1999/xlink" x="0px" y="0px"
	 viewBox="0 0 731.92 334.92" style="enable-background:new 0 0 731.92 334.92;" xml:space="preserve">
<style type="text/css">
	.st0{fill-rule:evenodd;clip-rule:evenodd;fill:#00B33C;}
	.st1{fill:#1A1A18;}
	.st2{fill:#FFFFFF;}
	.st3{fill:#F9AE00;}
	.st4{fill:#0CA3E2;}
	.st5{fill:#0900A5;}
	.st6{fill:#FF0303;}
	.st7{fill:none;}
	.st8{fill:none;stroke:#000000;stroke-width:2;stroke-miterlimit:10;}
	.st9{font-family:'ArialNarrow-Bold';}
	.st10{font-size:43.5126px;}
	.st11{letter-spacing:11.34;}
</style>
<g>
	<g>
		<path class="st6" d="M133.43,51.22h-18.39c-18.07,0-33.4,13.76-33.4,40.46c0,16.02,7.42,27.83,20.65,33.66l-24.68,44.67
			c-0.81,1.46,0,2.59,1.29,2.59h11.46c0.97,0,1.62-0.32,1.94-1.13l22.42-43.86h8.07v43.86c0,0.48,0.48,1.13,1.13,1.13h10
			c0.97,0,1.29-0.49,1.29-1.29V52.83C135.2,51.7,134.56,51.22,133.43,51.22z M122.78,117.25H116c-10.65,0-20.97-7.77-20.97-27.19
			c0-20.23,9.68-28.49,19.52-28.49h8.23L122.78,117.25L122.78,117.25z"/>
		<path class="st7" d="M231.66,112.98c-1.13,19.42-4.36,35.28-12.59,49.36h23.39v-60.69h-10.32
			C232.15,104.4,231.98,108.77,231.66,112.98L231.66,112.98z M292.32,99.55c-5.65,0-9.04,6.95-10.49,20.71
			c-0.32,2.59-0.32,5.02-0.32,5.02s5.81-0.65,9.52-0.65h10.65c0,0,0-2.92-0.16-5.5C300.72,106.66,297.49,99.55,292.32,99.55
			L292.32,99.55z"/>
		<path d="M194.07,91.45h-10c-0.81,0-1.29,0.65-1.29,1.13v30.91h-18.56V92.58c0-0.81-0.32-1.13-1.13-1.13h-10
			c-0.81,0-1.29,0.49-1.29,1.13v78.66c0,0.81,0.32,1.29,1.13,1.29h10.17c0.65,0,1.13-0.49,1.13-1.29v-37.55h18.56v37.54
			c0,0.81,0.48,1.29,1.29,1.29h10c0.81,0,1.13-0.65,1.13-1.29V92.58C195.2,91.94,194.72,91.45,194.07,91.45L194.07,91.45z
			 M422.46,167.36l-1.29-5.5c-0.16-0.49-0.32-0.65-0.81-0.65c-0.8,0-5.16,1.78-11.45,1.78c-12.26,0-18.23-11.81-18.23-30.58
			c0-16.51,5-32.85,13.39-32.85c2.26,0,5,0.64,9.36,4.7c0.49,0.48,0.81,0.65,1.29,0.65c0.49,0,0.97-0.33,1.46-1.14l4.36-7.12
			c0.32-0.49,0.49-0.98,0.49-1.46c0-0.65-0.65-1.13-1.62-1.61c-6.61-3.4-11.13-4.05-15.01-4.05c-15.16,0-26.94,18.13-26.94,46.44
			c0,24.44,11.29,38.52,27.43,38.52c6.78,0,14.04-3.23,16.94-5.34C422.46,168.65,422.62,168,422.46,167.36L422.46,167.36z
			 M352.34,128.02l19.36-35.44c0.32-0.49,0.16-1.13-0.49-1.13h-9.52c-2.75,0-3.71,0.97-4.68,3.07l-14.52,30.27
			c-0.81,1.78-1.61,2.91-2.42,3.4V92.58c0-0.64-0.32-1.13-0.97-1.13h-10.49c-0.48,0-0.96,0.49-0.96,1.13v78.82
			c0,0.49,0.32,1.13,0.96,1.13h10.49c0.65,0,0.97-0.49,0.97-1.13v-40.62c0.49,0.32,0.81,0.81,1.13,1.46l18.39,37.87
			c0.97,1.94,2.42,2.43,4.52,2.43h10.32c0.65,0,0.81-0.65,0.49-1.13L352.34,128.02L352.34,128.02z M259.9,162.34h-1.94
			c-2.42,0-3.06-0.97-3.06-2.91V92.58c0-0.81-0.32-1.13-0.97-1.13h-32.27c-0.8,0-1.29,0.49-1.29,1.13v5.83
			c0,19.58-1.13,44.83-11.45,63.93h-3.55c-0.97,0-1.29,0.49-1.29,1.3v23.63c0,0.81,0.65,1.13,1.13,1.13h7.74
			c1.77,0,2.42-1.29,2.42-2.43v-13.43h34.53v14.73c0,0.65,0.48,1.13,1.13,1.13h8.23c0.96,0,1.94-0.81,1.94-2.43v-22.33
			C261.19,162.83,260.7,162.34,259.9,162.34L259.9,162.34z M242.47,162.34h-23.39c8.23-14.08,11.45-29.94,12.59-49.36
			c0.32-4.21,0.48-8.58,0.48-11.33h10.32L242.47,162.34L242.47,162.34z M292.81,89.51c-17.42,0-25.17,22.01-25.17,45.96
			c0,24.44,10.97,39,27.1,39c7.9,0,14.84-3.07,18.39-5.34c0.65-0.32,0.81-0.81,0.65-1.45l-1.29-5.5c-0.16-0.65-0.48-0.97-1.29-0.97
			c-0.64,0-5.32,1.78-11.94,1.78c-12.42,0-18.23-10.84-18.23-25.08v-3.83c0,0,6.29,0.75,10,0.75h23.56v-6.8
			C314.59,102.94,305.71,89.51,292.81,89.51L292.81,89.51z M291.03,124.63c-3.71,0-9.52,0.65-9.52,0.65s0-2.43,0.32-5.02
			c1.45-13.76,4.84-20.71,10.49-20.71c5.16,0,8.39,7.12,9.2,19.58c0.16,2.59,0.16,5.5,0.16,5.5H291.03L291.03,124.63z"/>
	</g>
	<g>
		<path class="st8" d="M480.76,71v-6.04c0-4.35,3.52-7.87,7.87-7.87h129.4c4.31,0,8.35,2.11,10.83,5.64l54.96,78.59
			c3.31,4.73,3.5,10.97,0.48,15.89l-46.92,76.48c-3.94,6.43-10.94,10.34-18.48,10.34H488.64c-4.35,0-7.87-3.52-7.87-7.87V71z"/>
		<path class="st8" d="M508.06,98.17l-0.27-0.36c-1.21-1.61-1.05-3.87,0.38-5.29l0,0c0.76-0.76,1.79-1.19,2.86-1.19h14.78
			c0.47,0,0.93,0.08,1.36,0.24c2.64,0.96,11.93,5.04,14.69,15.59c0.47,1.79,2.07,3.05,3.92,3.05h69.82c0.38,0,0.75,0.05,1.12,0.16
			c2.83,0.81,14.85,4.86,14.85,15.51v10.43c0,0.53-0.1,1.05-0.31,1.54c-1.01,2.44-4.74,9.57-14.03,10.61l-73.68,12.7
			c-0.11,0.02-0.22,0.04-0.33,0.07c-1.53,0.4-12.41,3.45-8.73,9.27c0.72,1.13,2.01,1.77,3.35,1.77h74.08c1.23,0,2.39,0.56,3.15,1.51
			l0.69,0.86c1.3,1.61,1.17,3.94-0.29,5.4l-0.83,0.83c-0.76,0.76-1.79,1.19-2.86,1.19h-77.2c-0.67,0-1.32-0.16-1.91-0.48
			c-2.76-1.49-10.63-6.32-10.01-12.7c0.65-6.7,3.48-9.06,7.73-11.4c1.28-0.71,2.07-2.07,2.07-3.53v-44.31c0-0.61-0.14-1.21-0.4-1.76
			c-1.1-2.27-4.37-8.17-8.87-8.29c-3.82-0.1-8.89,0.08-11.71,0.2C510.14,99.85,508.86,99.24,508.06,98.17z"/>
		<circle class="st8" cx="539.28" cy="195.82" r="9.86"/>
		<circle class="st8" cx="597.64" cy="195.82" r="9.86"/>
		<path class="st8" d="M542.88,123.63v24.91c0,2.33,2.09,4.11,4.39,3.73c14.91-2.44,62.73-10.26,62.97-10.4
			c0.21-0.13,3.81-0.84,7.3-3.06c2.27-1.45,3.59-3.99,3.59-6.68v-3.36c0-1.42-0.36-2.82-1.1-4.04c-0.58-0.97-1.4-2.1-2.45-3.04
			c-1.42-1.27-3.29-1.89-5.19-1.87l-66.08,0.37C544.42,120.2,542.88,121.74,542.88,123.63z"/>
	</g>
	<text transform="matrix(0.6171 0 0 1 268.5842 223.2879)" class="st9 st10 st11">Доставка</text>
</g>
</svg>
