<?xml version="1.0" encoding="utf-8"?>
<!-- Generator: Adobe Illustrator 24.0.1, SVG Export Plug-In . SVG Version: 6.00 Build 0)  -->
<svg version="1.1" id="Слой_1" xmlns="http://www.w3.org/2000/svg" xmlns:xlink="http://www.w3.org/1999/xlink" x="0px" y="0px"
	 viewBox="0 0 1130.9 365.96" style="enable-background:new 0 0 1130.9 365.96;" xml:space="preserve">
<style type="text/css">
	.st0{fill-rule:evenodd;clip-rule:evenodd;fill:#00B33C;}
	.st1{fill:#1A1A18;}
	.st2{fill:#FFFFFF;}
	.st3{fill:#F9AE00;}
	.st4{fill:#0CA3E2;}
	.st5{fill:#0900A5;}
	.st6{fill:#FF0303;}
	.st7{fill:none;}
	.st8{fill:none;stroke:#000000;stroke-width:2;stroke-miterlimit:10;}
</style>
<path class="st0" d="M192.73,262.28h-47.64c-74.31,0-20.32-158.47,42.24-158.47h75.27c12.06,0,33.34,2.23,43.82-27.74l16.2-46.55
	H219.4c-55.89,0-99.4,19.77-130.84,52.93c-54.31,56.75-72.72,145.4-59.7,187.8c12.39,39.22,46.05,65.05,98.76,65.68l40.97,0.32
	h50.49l12.39-37.3C240.68,272.48,220.04,262.28,192.73,262.28L192.73,262.28z M772.59,196.59l15.56-50.7H622.07
	c-27.63,0-40.01,7.65-44.78,23.6l-15.56,50.7h166.09C755.45,220.19,767.83,212.54,772.59,196.59L772.59,196.59z M536.97,285.87
	l-15.56,50.69h166.08c27.31,0,40.01-7.65,44.78-23.59l15.56-50.7H581.74C554.43,262.28,542.05,269.93,536.97,285.87L536.97,285.87z
	 M811.34,80.53l15.56-50.69H660.82c-27.63,0-40.01,7.65-44.78,23.59l-15.56,50.7h166.09C793.88,104.12,806.26,96.47,811.34,80.53
	L811.34,80.53z M560.46,90.74c-6.98-47.19-32.07-60.9-93.04-60.9H356.28l-64.78,190.35h40.97c24.45,0,36.83,0.32,49.86-34.76
	l26.99-81.62h41.28c35.25,0,27.31,44.32,9.53,87.36c-15.88,37.95-43.51,71.42-76.85,71.42h-68.91c-27.63,0-40.33,7.65-45.41,23.6
	l-17.15,50.7h50.49l49.54-0.32c43.82-0.32,79.71-3.5,121.63-41.45C517.91,254.62,569.36,150.68,560.46,90.74L560.46,90.74z
	 M1118.74,29.51h-96.22l-90.51,96.61c-10.48,11.16-21.28,22.32-31.75,35.39h-0.95l45.09-132h-78.44L760.21,336.56h78.43l33.66-96.61
	l34.93-29.65l27.63,87.37c8.57,27.1,17.47,38.9,36.52,38.9h60.02L969.8,165.02L1118.74,29.51z"/>
</svg>
