<?xml version="1.0" encoding="utf-8"?>
<!-- Generator: Adobe Illustrator 24.0.1, SVG Export Plug-In . SVG Version: 6.00 Build 0)  -->
<svg version="1.1" id="Слой_1" xmlns="http://www.w3.org/2000/svg" xmlns:xlink="http://www.w3.org/1999/xlink" x="0px" y="0px"
	 viewBox="0 0 1366 768" style="enable-background:new 0 0 1366 768;" xml:space="preserve">
<style type="text/css">
	.st0{fill-rule:evenodd;clip-rule:evenodd;fill:#00B33C;}
	.st1{fill:#1A1A18;}
	.st2{fill:#FFFFFF;}
	.st3{fill:#F9AE00;}
	.st4{fill:#0CA3E2;}
	.st5{fill:#0900A5;}
	.st6{fill:#FF0303;}
	.st7{fill:none;}
	.st8{fill:none;stroke:#000000;stroke-width:2;stroke-miterlimit:10;}
</style>
<g>
	<g>
		<g>
			<path class="st4" d="M412.8,415.44h-6.53l0.89-4.61h18.56l-0.89,4.61h-6.53l-3.51,17.74h-5.5L412.8,415.44z"/>
		</g>
	</g>
	<path class="st4" d="M460.39,419.52c0,0.94-0.09,1.95-0.26,3.03c-0.17,1.08-0.44,2.16-0.8,3.23c-0.36,1.07-0.82,2.1-1.39,3.09
		c-0.56,0.99-1.24,1.86-2.03,2.61c-0.79,0.75-1.69,1.35-2.71,1.8c-1.02,0.45-2.16,0.67-3.43,0.67c-0.58,0-1.12-0.06-1.62-0.17
		c-0.51-0.12-0.97-0.28-1.4-0.49c-0.43-0.21-0.81-0.45-1.16-0.74s-0.65-0.58-0.91-0.9l-1.71,8.73c-0.03,0.14-0.1,0.27-0.21,0.39
		c-0.11,0.12-0.27,0.21-0.5,0.29c-0.22,0.08-0.52,0.14-0.88,0.18c-0.36,0.04-0.81,0.07-1.34,0.07c-0.53,0-0.97-0.02-1.3-0.07
		c-0.33-0.04-0.6-0.1-0.79-0.18c-0.19-0.08-0.32-0.18-0.38-0.29c-0.06-0.12-0.07-0.25-0.04-0.39l5.42-27.01
		c0.06-0.3,0.28-0.52,0.67-0.65s1.03-0.2,1.93-0.2c0.45,0,0.81,0.02,1.09,0.05c0.28,0.04,0.51,0.09,0.67,0.15
		c0.17,0.06,0.28,0.15,0.34,0.26c0.06,0.11,0.07,0.24,0.04,0.38l-0.61,3.14c0.22-0.48,0.56-0.97,1.03-1.48
		c0.47-0.51,1.03-0.98,1.69-1.41c0.66-0.43,1.38-0.78,2.17-1.05c0.79-0.27,1.6-0.41,2.44-0.41c1.11,0,2.05,0.19,2.81,0.57
		c0.76,0.38,1.37,0.91,1.84,1.57c0.47,0.66,0.81,1.44,1.02,2.34C460.29,417.53,460.39,418.49,460.39,419.52z M454.78,419.99
		c0-0.49-0.04-0.94-0.12-1.34c-0.08-0.4-0.21-0.75-0.39-1.03c-0.18-0.28-0.41-0.49-0.69-0.64c-0.28-0.14-0.62-0.22-1.03-0.22
		c-0.65,0-1.3,0.19-1.96,0.57c-0.66,0.38-1.27,0.9-1.85,1.56c-0.58,0.66-1.09,1.42-1.54,2.3c-0.45,0.87-0.77,1.81-0.95,2.81
		l-0.61,2.95c0.51,0.79,1.06,1.39,1.68,1.79c0.61,0.4,1.32,0.6,2.13,0.6c0.59,0,1.14-0.14,1.64-0.43c0.5-0.29,0.95-0.68,1.34-1.16
		c0.4-0.48,0.74-1.04,1.04-1.68c0.3-0.64,0.54-1.3,0.74-1.99c0.19-0.69,0.34-1.39,0.43-2.09
		C454.73,421.27,454.78,420.61,454.78,419.99z"/>
	<g>
		<path class="st5" d="M868.13,322.89c1.87-5.54,3.6-10.67,5.4-16.03c0.99,0,2.01,0,3.03,0c20.82-0.02,41.64,0.13,62.46-0.12
			c10.44-0.13,15.12,3.47,14.47,15.3c-0.38,6.92-2.25,13.79-3.74,20.61c-2.23,10.24-4.81,20.41-7.03,30.66
			c-0.49,2.24-1.2,3.02-3.56,3.01c-23.91-0.08-47.83-0.07-71.74-0.01c-8.52,0.02-10.13-3.77-11.19-10.13
			c-1.85-11.12,0.14-21.72,9.15-29.54c4.05-3.51,9.28-5.48,14.78-5.55c12.98-0.16,25.97-0.08,38.95-0.06c2.23,0,4.32,0.09,5.44-2.45
			c1.53-3.47,0.03-5.8-3.91-5.79c-14.74,0.02-29.48,0.06-44.22,0.09C873.77,322.89,871.13,322.89,868.13,322.89z M919.43,345.54
			c-3.25,0-5.8-0.03-8.35,0.01c-5.24,0.08-10.48,0.01-15.7,0.37c-4.06,0.27-7.02,2.68-9.18,6.06c-2.99,4.68-0.6,9.74,4.87,9.86
			c7.72,0.17,15.44,0.04,23.16-0.09c0.78-0.01,2.09-0.8,2.24-1.44C917.55,355.62,918.39,350.87,919.43,345.54z"/>
		<path class="st4" d="M516.2,321.75c1.16-3.45,2.24-6.64,3.36-9.97c0.62,0,1.25,0,1.88,0c12.95-0.01,25.9,0.08,38.85-0.08
			c6.49-0.08,9.4,2.16,9,9.51c-0.24,4.3-1.4,8.57-2.33,12.82c-1.39,6.37-2.99,12.69-4.37,19.07c-0.3,1.39-0.75,1.88-2.22,1.87
			c-14.87-0.05-29.74-0.05-44.62-0.01c-5.3,0.01-6.3-2.34-6.96-6.3c-1.15-6.91,0.09-13.51,5.69-18.37c2.52-2.19,5.77-3.41,9.19-3.45
			c8.07-0.1,16.15-0.05,24.22-0.04c1.39,0,2.69,0.06,3.39-1.52c0.95-2.16,0.02-3.6-2.43-3.6c-9.17,0.01-18.33,0.04-27.5,0.06
			C519.71,321.75,518.07,321.75,516.2,321.75z M548.1,335.83c-2.02,0-3.61-0.02-5.19,0c-3.26,0.05-6.52,0.01-9.77,0.23
			c-2.52,0.17-4.37,1.67-5.71,3.77c-1.86,2.91-0.37,6.06,3.03,6.13c4.8,0.1,9.6,0.02,14.4-0.06c0.49-0.01,1.3-0.5,1.39-0.89
			C546.93,342.1,547.46,339.15,548.1,335.83z"/>
		<path class="st5" d="M969.88,306.93c15.57,0,30.72,0.01,45.87,0c9.07,0,18.15-0.1,27.22-0.03c8.78,0.07,14.78,5.68,14.6,14.51
			c-0.11,5.37-1.31,10.78-2.49,16.07c-2.86,12.84-5.99,25.62-9.04,38.52c-9.67,0-19.01,0-28.7,0c1.19-5,2.36-9.87,3.53-14.74
			c2.13-8.9,4.31-17.78,6.33-26.71c0.4-1.77,0.36-3.71,0.17-5.54c-0.48-4.75-3.5-7.33-8.27-7.31c-6.29,0.02-12.58,0.1-18.87,0.01
			c-1.98-0.03-2.82,0.5-3.32,2.57c-3.91,16.41-8.02,32.77-11.94,49.18c-0.5,2.11-1.27,2.79-3.46,2.76
			c-8.85-0.14-17.7-0.06-26.85-0.06C959.77,352.97,964.8,330.09,969.88,306.93z"/>
		<path class="st5" d="M729.99,376.13c6.09-26.25,12.09-52.15,18.21-78.55c-11.44,0-22.51,0-33.86,0
			c1.25-6.51,2.43-12.53,3.54-18.57c0.37-2,1.75-1.93,3.25-1.92c9.28,0.02,18.56,0.01,27.83,0.01c21.34,0,42.68,0,64.02,0
			c1.22,0,2.44,0,3.89,0c-1.52,6.25-3.02,12.13-4.36,18.04c-0.43,1.9-1.42,2.36-3.23,2.34c-9.69-0.08-19.38,0.01-29.07-0.1
			c-2.23-0.03-3.25,0.61-3.77,2.9c-3.14,13.84-6.46,27.64-9.67,41.46c-2.52,10.81-4.94,21.65-7.51,32.45
			c-0.18,0.75-1.18,1.86-1.81,1.87C748.5,376.17,739.55,376.13,729.99,376.13z"/>
		<path class="st5" d="M1057.49,375.89c1.12-4.19,2.16-8.36,3.42-12.45c0.16-0.52,1.46-0.96,2.24-0.97
			c16.92-0.03,33.83,0.01,50.75,0.04c1.13,0,2.27,0.11,3.4,0.07c5.54-0.22,8.91-4.79,7.72-10.24c-0.54-2.47-2.08-2.93-4.29-2.91
			c-12.79,0.06-25.59-0.33-38.36,0.21c-5.98,0.26-12.69-5.95-13.06-12.23c-0.56-9.62,2.56-17.75,8.93-24.49
			c3.74-3.96,8.7-6.53,14.55-6.51c21.56,0.07,43.11,0.1,64.67,0.17c0.39,0,0.78,0.16,1.47,0.3c-0.95,3.87-1.73,7.68-2.91,11.36
			c-0.25,0.78-1.97,1.53-3.02,1.54c-14.65,0.08-29.29,0.03-43.94,0.02c-2.27,0-4.54-0.04-6.81,0.03c-4.56,0.13-7.47,2.84-9.3,6.63
			c-1.72,3.57-0.1,6.6,3.81,7.39c2.3,0.47,4.71,0.53,7.07,0.53c9.8-0.02,19.59-0.15,29.39-0.19c1.75-0.01,3.5,0.15,5.24,0.36
			c9.78,1.18,11.41,7.78,10.65,17.79c-0.76,9.97-6.9,16.51-14.66,21.69c-2.09,1.39-5.05,2.05-7.61,2.07
			c-22.69,0.15-45.38,0.08-68.08,0.06C1058.45,376.13,1058.15,376.02,1057.49,375.89z"/>
		<path class="st5" d="M787.65,376c1.53-7.22,3.08-14.14,4.46-21.09c1.95-9.77,3.53-19.63,5.77-29.33
			c1.05-4.55,2.75-9.15,5.12-13.15c2.17-3.65,5.96-5.97,10.61-5.92c3.5,0.04,7,0.25,10.5,0.26c11.13,0.04,22.26,0.02,33.4,0.02
			c1.01,0,2.02,0,3.44,0c-1.01,4.63-1.84,8.94-2.98,13.16c-0.17,0.62-1.74,1.22-2.67,1.23c-5.67,0.07-11.34-0.09-17.01-0.07
			c-6.41,0.03-11.28,3.8-12.69,9.99c-3.19,13.93-6.26,27.88-9.38,41.82c-0.22,0.99-0.51,1.97-0.81,3.08
			C806.28,376,797.24,376,787.65,376z"/>
		<g>
			<g>
				<path class="st4" d="M698.62,415.44l-6.53,0l0.9-4.61l18.56,0.01l-0.9,4.61l-6.53,0l-3.51,17.74l-5.5,0L698.62,415.44z"/>
			</g>
		</g>
		<path class="st4" d="M529.84,432.71c-0.03,0.15-0.1,0.27-0.22,0.38c-0.12,0.11-0.29,0.2-0.51,0.27c-0.22,0.07-0.51,0.13-0.87,0.16
			c-0.35,0.04-0.8,0.05-1.33,0.05c-0.52,0-0.95-0.02-1.3-0.05c-0.35-0.04-0.61-0.09-0.8-0.16c-0.19-0.07-0.31-0.16-0.38-0.27
			c-0.07-0.11-0.08-0.23-0.03-0.38l1.52-7.6h-7.65l-1.52,7.6c-0.03,0.15-0.1,0.27-0.21,0.38c-0.11,0.11-0.27,0.2-0.5,0.27
			c-0.22,0.07-0.52,0.13-0.88,0.16c-0.36,0.04-0.8,0.05-1.32,0.05c-0.53,0-0.97-0.02-1.31-0.05c-0.34-0.04-0.61-0.09-0.8-0.16
			c-0.19-0.07-0.32-0.16-0.38-0.27c-0.06-0.11-0.07-0.23-0.04-0.38l3.86-19.32c0.03-0.14,0.1-0.27,0.21-0.38
			c0.11-0.11,0.27-0.2,0.5-0.27c0.22-0.07,0.51-0.13,0.87-0.16c0.35-0.04,0.8-0.05,1.33-0.05c0.53,0,0.97,0.02,1.31,0.05
			c0.34,0.04,0.61,0.09,0.8,0.16c0.2,0.07,0.32,0.16,0.38,0.27c0.06,0.11,0.07,0.23,0.04,0.38l-1.45,7.24h7.65l1.45-7.24
			c0.03-0.14,0.09-0.27,0.19-0.38c0.1-0.11,0.26-0.2,0.49-0.27c0.22-0.07,0.52-0.13,0.88-0.16c0.36-0.04,0.8-0.05,1.32-0.05
			c0.53,0,0.97,0.02,1.31,0.05c0.34,0.04,0.61,0.09,0.8,0.16c0.19,0.07,0.32,0.16,0.39,0.27c0.06,0.11,0.08,0.23,0.05,0.38
			L529.84,432.71z"/>
		<path class="st4" d="M565.27,414.66c0,0.33-0.04,0.71-0.12,1.13c-0.08,0.42-0.18,0.82-0.31,1.19c-0.13,0.38-0.29,0.69-0.49,0.94
			c-0.2,0.25-0.41,0.38-0.64,0.38c-0.22,0-0.43-0.09-0.63-0.26c-0.2-0.17-0.45-0.37-0.75-0.59s-0.67-0.42-1.12-0.6
			c-0.45-0.18-1.03-0.27-1.73-0.27c-0.75,0-1.42,0.17-2.02,0.5c-0.59,0.33-1.11,0.76-1.55,1.29c-0.44,0.53-0.81,1.13-1.09,1.8
			c-0.29,0.67-0.53,1.35-0.72,2.04c-0.19,0.69-0.32,1.34-0.4,1.97c-0.08,0.63-0.12,1.17-0.12,1.64c0,1.17,0.26,2.06,0.77,2.66
			c0.51,0.61,1.32,0.91,2.42,0.91c0.81,0,1.5-0.1,2.08-0.31c0.58-0.21,1.07-0.44,1.48-0.69c0.41-0.25,0.77-0.48,1.06-0.68
			c0.3-0.2,0.57-0.3,0.81-0.3c0.14,0,0.25,0.06,0.31,0.19c0.07,0.13,0.1,0.32,0.1,0.56c0,0.25-0.03,0.55-0.09,0.92
			c-0.06,0.37-0.13,0.74-0.23,1.12c-0.09,0.38-0.2,0.73-0.33,1.05c-0.12,0.33-0.28,0.58-0.48,0.77c-0.2,0.19-0.5,0.4-0.92,0.64
			s-0.9,0.45-1.45,0.64s-1.14,0.34-1.79,0.46c-0.64,0.12-1.31,0.17-2,0.17c-2.47,0-4.32-0.62-5.55-1.87
			c-1.23-1.25-1.84-3.09-1.84-5.53c0-0.88,0.08-1.85,0.25-2.9c0.17-1.05,0.44-2.11,0.81-3.17c0.38-1.06,0.86-2.09,1.46-3.09
			c0.6-1,1.33-1.88,2.2-2.64c0.87-0.77,1.87-1.38,3.01-1.84c1.14-0.46,2.46-0.69,3.94-0.69c0.58,0,1.14,0.04,1.69,0.13
			c0.55,0.09,1.05,0.21,1.52,0.36c0.46,0.15,0.87,0.33,1.22,0.53c0.35,0.2,0.62,0.39,0.79,0.55c0.17,0.17,0.28,0.31,0.34,0.44
			S565.27,414.48,565.27,414.66z"/>
		<path class="st4" d="M602.11,432.71c-0.03,0.15-0.1,0.27-0.22,0.38c-0.12,0.11-0.29,0.2-0.51,0.27c-0.22,0.07-0.51,0.13-0.87,0.16
			c-0.35,0.04-0.8,0.05-1.33,0.05c-0.52,0-0.95-0.02-1.3-0.05c-0.35-0.04-0.62-0.09-0.81-0.16c-0.19-0.07-0.32-0.16-0.39-0.27
			c-0.06-0.11-0.08-0.23-0.03-0.38l3.1-15.55h-7.32l-3.1,15.55c-0.03,0.15-0.1,0.27-0.21,0.38c-0.11,0.11-0.28,0.2-0.51,0.27
			c-0.23,0.07-0.53,0.13-0.89,0.16c-0.36,0.04-0.8,0.05-1.32,0.05c-0.53,0-0.97-0.02-1.31-0.05c-0.34-0.04-0.6-0.09-0.79-0.16
			c-0.19-0.07-0.31-0.16-0.37-0.27c-0.06-0.11-0.07-0.23-0.04-0.38l3.66-18.3c0.12-0.58,0.32-1.01,0.63-1.31
			c0.3-0.3,0.72-0.44,1.23-0.44h15.21c0.51,0,0.85,0.15,1.03,0.44c0.18,0.3,0.21,0.73,0.1,1.31L602.11,432.71z"/>
		<path class="st4" d="M638.42,419.88c0,1.04-0.1,2.11-0.29,3.21c-0.19,1.1-0.5,2.17-0.92,3.22c-0.42,1.05-0.96,2.03-1.61,2.95
			c-0.66,0.92-1.44,1.73-2.36,2.43c-0.92,0.7-1.97,1.25-3.15,1.66c-1.18,0.4-2.52,0.61-4.01,0.61c-1.46,0-2.72-0.17-3.78-0.51
			c-1.06-0.34-1.95-0.84-2.65-1.49c-0.71-0.66-1.23-1.47-1.58-2.43c-0.35-0.96-0.52-2.06-0.52-3.3c0-1.04,0.1-2.11,0.29-3.21
			c0.2-1.1,0.5-2.17,0.92-3.21c0.42-1.04,0.96-2.03,1.61-2.96c0.66-0.93,1.44-1.74,2.36-2.44c0.92-0.69,1.97-1.24,3.15-1.65
			c1.18-0.4,2.52-0.61,4.01-0.61c1.46,0,2.72,0.17,3.78,0.51c1.06,0.34,1.95,0.84,2.65,1.49c0.71,0.66,1.23,1.47,1.58,2.43
			C638.25,417.54,638.42,418.64,638.42,419.88z M632.79,420.25c0-0.61-0.06-1.14-0.18-1.61c-0.12-0.47-0.32-0.87-0.61-1.19
			c-0.28-0.33-0.64-0.57-1.08-0.75c-0.44-0.17-0.98-0.26-1.61-0.26c-0.72,0-1.37,0.14-1.95,0.42c-0.58,0.28-1.09,0.66-1.55,1.14
			c-0.45,0.48-0.85,1.03-1.18,1.66c-0.33,0.63-0.61,1.29-0.82,1.98c-0.22,0.69-0.38,1.4-0.48,2.11c-0.1,0.71-0.15,1.4-0.15,2.05
			c0,0.61,0.06,1.15,0.18,1.62c0.12,0.48,0.33,0.88,0.61,1.2c0.28,0.32,0.64,0.57,1.08,0.75s0.98,0.26,1.61,0.26
			c0.72,0,1.37-0.14,1.95-0.42c0.58-0.28,1.09-0.66,1.55-1.15c0.46-0.48,0.85-1.04,1.18-1.67c0.33-0.63,0.61-1.29,0.82-1.99
			c0.22-0.7,0.38-1.4,0.48-2.11C632.74,421.58,632.79,420.9,632.79,420.25z"/>
		<path class="st4" d="M675.96,419.52c0,0.94-0.09,1.95-0.26,3.03c-0.17,1.08-0.44,2.16-0.8,3.23c-0.36,1.07-0.82,2.1-1.39,3.09
			c-0.56,0.99-1.24,1.86-2.03,2.61c-0.79,0.75-1.69,1.35-2.71,1.8c-1.02,0.45-2.16,0.67-3.43,0.67c-0.58,0-1.12-0.06-1.62-0.17
			c-0.51-0.12-0.97-0.28-1.4-0.49c-0.43-0.21-0.81-0.45-1.16-0.74c-0.35-0.28-0.65-0.58-0.91-0.9l-1.71,8.73
			c-0.03,0.14-0.1,0.27-0.21,0.39c-0.11,0.12-0.27,0.21-0.5,0.29c-0.22,0.08-0.52,0.14-0.88,0.18c-0.36,0.04-0.81,0.07-1.34,0.07
			c-0.53,0-0.97-0.02-1.3-0.07c-0.33-0.04-0.6-0.1-0.79-0.18c-0.2-0.08-0.32-0.18-0.38-0.29c-0.06-0.12-0.07-0.25-0.04-0.39
			l5.42-27.01c0.06-0.3,0.28-0.52,0.67-0.65s1.03-0.2,1.93-0.2c0.45,0,0.81,0.02,1.09,0.05c0.28,0.04,0.51,0.09,0.67,0.15
			c0.17,0.06,0.28,0.15,0.34,0.26s0.07,0.24,0.04,0.38l-0.61,3.14c0.22-0.48,0.56-0.97,1.03-1.48c0.47-0.51,1.03-0.98,1.69-1.41
			c0.66-0.43,1.38-0.78,2.17-1.05c0.79-0.27,1.6-0.41,2.44-0.41c1.11,0,2.05,0.19,2.81,0.57c0.76,0.38,1.37,0.91,1.84,1.57
			c0.47,0.66,0.81,1.44,1.02,2.34C675.86,417.53,675.96,418.49,675.96,419.52z M670.35,419.99c0-0.49-0.04-0.94-0.12-1.34
			c-0.08-0.4-0.21-0.75-0.39-1.03s-0.41-0.49-0.69-0.64c-0.28-0.14-0.62-0.22-1.03-0.22c-0.65,0-1.3,0.19-1.96,0.57
			c-0.66,0.38-1.27,0.9-1.85,1.56c-0.58,0.66-1.09,1.42-1.54,2.3c-0.45,0.87-0.77,1.81-0.95,2.81l-0.61,2.95
			c0.51,0.79,1.06,1.39,1.68,1.79c0.61,0.4,1.32,0.6,2.13,0.6c0.59,0,1.14-0.14,1.64-0.43c0.5-0.29,0.95-0.68,1.34-1.16
			c0.4-0.48,0.74-1.04,1.04-1.68c0.3-0.64,0.54-1.3,0.74-1.99c0.19-0.69,0.34-1.39,0.43-2.09
			C670.3,421.27,670.35,420.61,670.35,419.99z"/>
		<path class="st4" d="M741.86,432.71c-0.03,0.15-0.1,0.27-0.22,0.38c-0.12,0.11-0.29,0.2-0.51,0.27c-0.22,0.07-0.51,0.13-0.87,0.16
			c-0.35,0.04-0.8,0.05-1.33,0.05c-0.52,0-0.95-0.02-1.3-0.05c-0.35-0.04-0.61-0.09-0.8-0.16c-0.19-0.07-0.31-0.16-0.38-0.27
			c-0.07-0.11-0.08-0.23-0.03-0.38l1.52-7.6h-7.65l-1.52,7.6c-0.03,0.15-0.1,0.27-0.21,0.38c-0.11,0.11-0.27,0.2-0.5,0.27
			c-0.22,0.07-0.52,0.13-0.88,0.16c-0.36,0.04-0.8,0.05-1.32,0.05c-0.53,0-0.97-0.02-1.31-0.05c-0.34-0.04-0.61-0.09-0.8-0.16
			c-0.19-0.07-0.32-0.16-0.38-0.27c-0.06-0.11-0.07-0.23-0.04-0.38l3.86-19.32c0.03-0.14,0.1-0.27,0.21-0.38
			c0.11-0.11,0.27-0.2,0.5-0.27c0.22-0.07,0.51-0.13,0.87-0.16c0.35-0.04,0.8-0.05,1.33-0.05c0.53,0,0.97,0.02,1.31,0.05
			c0.34,0.04,0.61,0.09,0.8,0.16c0.2,0.07,0.32,0.16,0.38,0.27c0.06,0.11,0.07,0.23,0.04,0.38l-1.45,7.24h7.65l1.45-7.24
			c0.03-0.14,0.09-0.27,0.19-0.38c0.1-0.11,0.26-0.2,0.49-0.27c0.22-0.07,0.52-0.13,0.88-0.16c0.36-0.04,0.8-0.05,1.32-0.05
			c0.53,0,0.97,0.02,1.31,0.05c0.34,0.04,0.61,0.09,0.8,0.16c0.19,0.07,0.32,0.16,0.39,0.27c0.06,0.11,0.08,0.23,0.05,0.38
			L741.86,432.71z"/>
		<path class="st4" d="M814.63,432.71c-0.03,0.16-0.1,0.29-0.2,0.4c-0.1,0.11-0.27,0.2-0.52,0.27c-0.25,0.07-0.58,0.12-0.99,0.15
			c-0.42,0.03-0.96,0.04-1.64,0.04c-0.61,0-1.12-0.01-1.52-0.04c-0.41-0.03-0.72-0.08-0.94-0.15c-0.22-0.07-0.37-0.16-0.44-0.27
			c-0.08-0.11-0.1-0.24-0.06-0.4l1.7-7.3h-2.18c-0.66,0-1.24,0.09-1.75,0.27c-0.51,0.18-0.97,0.43-1.38,0.76
			c-0.42,0.32-0.8,0.72-1.17,1.19c-0.36,0.47-0.74,0.99-1.13,1.55l-2.23,3.38c-0.15,0.23-0.32,0.41-0.5,0.54
			c-0.18,0.13-0.42,0.23-0.71,0.3c-0.3,0.07-0.67,0.12-1.13,0.14c-0.46,0.02-1.03,0.03-1.73,0.03c-0.63,0-1.14-0.01-1.54-0.04
			c-0.4-0.03-0.7-0.07-0.91-0.12c-0.21-0.05-0.36-0.12-0.43-0.21c-0.08-0.09-0.11-0.19-0.11-0.3c0-0.06,0.02-0.13,0.05-0.23
			c0.03-0.09,0.1-0.23,0.19-0.4c0.09-0.17,0.22-0.38,0.39-0.63c0.17-0.25,0.39-0.56,0.66-0.93l2.29-3.14
			c0.83-1.11,1.64-1.95,2.42-2.51c0.79-0.56,1.55-0.92,2.3-1.06c-1.3-0.29-2.29-0.79-2.97-1.49c-0.68-0.71-1.02-1.57-1.02-2.58
			c0-0.61,0.09-1.21,0.27-1.81c0.18-0.6,0.47-1.18,0.86-1.73c0.4-0.56,0.92-1.08,1.57-1.57c0.65-0.49,1.44-0.91,2.37-1.27
			c0.93-0.35,2.02-0.64,3.28-0.84c1.25-0.21,2.68-0.31,4.29-0.31c0.68,0,1.34,0.01,1.99,0.02c0.65,0.01,1.29,0.04,1.92,0.07
			c0.63,0.03,1.25,0.06,1.87,0.09c0.62,0.03,1.23,0.07,1.84,0.13c0.49,0.03,0.85,0.18,1.08,0.47s0.28,0.68,0.17,1.2L814.63,432.71z
			 M812.11,416.29c-0.42-0.06-0.89-0.1-1.4-0.13c-0.51-0.03-0.95-0.04-1.32-0.04c-1.12,0-2.03,0.11-2.74,0.34
			c-0.71,0.22-1.28,0.51-1.7,0.84c-0.42,0.34-0.72,0.72-0.89,1.15c-0.17,0.43-0.25,0.84-0.25,1.25c0,0.36,0.07,0.68,0.2,0.94
			c0.14,0.27,0.36,0.49,0.66,0.68c0.3,0.19,0.71,0.32,1.21,0.41c0.5,0.09,1.12,0.13,1.87,0.13h3.1L812.11,416.29z"/>
		<path class="st4" d="M888.22,432.66c0,0.16-0.04,0.3-0.12,0.41s-0.23,0.21-0.44,0.29c-0.22,0.08-0.51,0.13-0.87,0.16
			c-0.36,0.03-0.82,0.04-1.39,0.04c-0.61,0-1.09-0.01-1.46-0.04c-0.37-0.03-0.65-0.07-0.86-0.13c-0.2-0.06-0.34-0.14-0.41-0.25
			c-0.07-0.11-0.12-0.23-0.15-0.38l-0.89-4.68c-0.13-0.62-0.28-1.14-0.46-1.55c-0.17-0.41-0.39-0.74-0.65-0.97s-0.57-0.4-0.94-0.5
			c-0.37-0.09-0.8-0.14-1.31-0.14h-1.1l-1.58,7.88c-0.01,0.1-0.08,0.2-0.2,0.29c-0.12,0.09-0.29,0.18-0.53,0.25
			c-0.24,0.07-0.53,0.13-0.89,0.16c-0.35,0.04-0.78,0.05-1.27,0.05c-0.51,0-0.92-0.02-1.26-0.05c-0.33-0.04-0.6-0.09-0.8-0.16
			c-0.2-0.07-0.34-0.16-0.41-0.25c-0.07-0.09-0.1-0.19-0.09-0.29l3.9-19.56c0.01-0.1,0.08-0.2,0.2-0.29
			c0.12-0.09,0.29-0.17,0.52-0.24c0.23-0.07,0.52-0.12,0.88-0.15c0.35-0.04,0.78-0.05,1.29-0.05c0.49,0,0.91,0.02,1.25,0.05
			c0.34,0.04,0.61,0.09,0.81,0.15c0.2,0.06,0.34,0.14,0.42,0.24c0.08,0.09,0.1,0.19,0.08,0.29l-1.49,7.52h1.1
			c0.39,0,0.77-0.05,1.15-0.15c0.38-0.1,0.74-0.28,1.09-0.54c0.35-0.26,0.71-0.6,1.06-1.03c0.35-0.43,0.71-0.97,1.07-1.64l2.36-4.07
			c0.09-0.14,0.2-0.27,0.33-0.38s0.32-0.19,0.57-0.26c0.25-0.06,0.57-0.11,0.96-0.14c0.39-0.03,0.89-0.04,1.49-0.04
			c0.53,0,0.96,0.02,1.28,0.04c0.32,0.03,0.57,0.07,0.75,0.12c0.18,0.05,0.3,0.11,0.36,0.17c0.06,0.06,0.09,0.14,0.09,0.23
			c0,0.14-0.05,0.33-0.14,0.55c-0.09,0.22-0.26,0.52-0.49,0.9l-2.4,3.83c-0.42,0.68-0.84,1.27-1.27,1.78
			c-0.43,0.51-0.85,0.93-1.28,1.29c-0.43,0.35-0.84,0.64-1.26,0.87c-0.41,0.22-0.81,0.39-1.18,0.51v0.04
			c0.39,0.14,0.75,0.33,1.09,0.56c0.34,0.23,0.65,0.52,0.93,0.88c0.28,0.35,0.53,0.77,0.76,1.25c0.22,0.48,0.41,1.03,0.57,1.67
			l1.06,4.4c0.06,0.27,0.1,0.49,0.12,0.66C888.21,432.43,888.22,432.56,888.22,432.66z"/>
		<path class="st4" d="M925.77,419.88c0,1.04-0.1,2.11-0.29,3.21c-0.19,1.1-0.5,2.17-0.92,3.22c-0.42,1.05-0.96,2.03-1.61,2.95
			c-0.66,0.92-1.44,1.73-2.36,2.43c-0.92,0.7-1.97,1.25-3.15,1.66c-1.18,0.4-2.52,0.61-4.01,0.61c-1.46,0-2.72-0.17-3.78-0.51
			c-1.06-0.34-1.95-0.84-2.65-1.49c-0.71-0.66-1.23-1.47-1.58-2.43c-0.35-0.96-0.52-2.06-0.52-3.3c0-1.04,0.1-2.11,0.29-3.21
			c0.2-1.1,0.5-2.17,0.92-3.21c0.42-1.04,0.96-2.03,1.61-2.96c0.66-0.93,1.44-1.74,2.36-2.44c0.92-0.69,1.97-1.24,3.15-1.65
			c1.18-0.4,2.52-0.61,4.01-0.61c1.46,0,2.72,0.17,3.78,0.51c1.06,0.34,1.95,0.84,2.65,1.49c0.71,0.66,1.23,1.47,1.58,2.43
			C925.6,417.54,925.77,418.64,925.77,419.88z M920.14,420.25c0-0.61-0.06-1.14-0.18-1.61c-0.12-0.47-0.32-0.87-0.61-1.19
			c-0.28-0.33-0.64-0.57-1.08-0.75c-0.44-0.17-0.98-0.26-1.61-0.26c-0.72,0-1.37,0.14-1.95,0.42c-0.58,0.28-1.09,0.66-1.55,1.14
			c-0.45,0.48-0.85,1.03-1.18,1.66c-0.33,0.63-0.61,1.29-0.82,1.98c-0.22,0.69-0.38,1.4-0.48,2.11c-0.1,0.71-0.15,1.4-0.15,2.05
			c0,0.61,0.06,1.15,0.18,1.62c0.12,0.48,0.33,0.88,0.61,1.2c0.28,0.32,0.64,0.57,1.08,0.75c0.44,0.17,0.98,0.26,1.61,0.26
			c0.72,0,1.37-0.14,1.95-0.42c0.58-0.28,1.09-0.66,1.55-1.15c0.46-0.48,0.85-1.04,1.18-1.67c0.33-0.63,0.61-1.29,0.82-1.99
			c0.22-0.7,0.38-1.4,0.48-2.11C920.09,421.58,920.14,420.9,920.14,420.25z"/>
		<path class="st4" d="M964.36,432.6c-0.03,0.36-0.24,0.61-0.64,0.76c-0.4,0.14-1.06,0.22-1.98,0.22c-0.56,0-1.01-0.01-1.34-0.02
			c-0.33-0.01-0.59-0.05-0.76-0.11c-0.17-0.06-0.28-0.14-0.31-0.25c-0.04-0.11-0.05-0.25-0.03-0.42l0.91-10.38
			c0.03-0.3,0.07-0.69,0.13-1.17c0.06-0.48,0.12-0.99,0.2-1.53c0.07-0.54,0.15-1.09,0.24-1.65c0.09-0.56,0.17-1.07,0.26-1.55h-0.04
			c-0.19,0.39-0.39,0.82-0.62,1.28c-0.22,0.46-0.45,0.93-0.68,1.41c-0.23,0.48-0.46,0.95-0.69,1.42s-0.44,0.89-0.63,1.27l-5.52,10.7
			c-0.09,0.17-0.2,0.33-0.34,0.46s-0.32,0.24-0.55,0.31c-0.23,0.08-0.52,0.14-0.86,0.17c-0.34,0.04-0.75,0.05-1.22,0.05
			c-0.46,0-0.84-0.02-1.14-0.05c-0.3-0.04-0.54-0.09-0.74-0.17c-0.19-0.08-0.33-0.18-0.41-0.31s-0.13-0.29-0.16-0.48l-1.17-10.68
			c-0.06-0.42-0.11-0.87-0.15-1.35c-0.04-0.48-0.08-0.96-0.12-1.44c-0.04-0.48-0.06-0.93-0.09-1.38c-0.02-0.44-0.03-0.84-0.03-1.2
			h-0.04c-0.1,0.43-0.22,0.91-0.36,1.42c-0.14,0.51-0.27,1.03-0.41,1.56c-0.14,0.53-0.28,1.04-0.42,1.55
			c-0.14,0.51-0.27,0.96-0.39,1.36l-3.16,10.25c-0.06,0.19-0.14,0.34-0.24,0.47c-0.1,0.12-0.26,0.22-0.48,0.29
			c-0.22,0.07-0.5,0.12-0.84,0.14c-0.35,0.02-0.8,0.03-1.36,0.03c-0.52,0-0.93-0.01-1.22-0.04c-0.3-0.03-0.52-0.08-0.67-0.16
			c-0.15-0.08-0.24-0.18-0.26-0.3c-0.02-0.12,0-0.28,0.05-0.47l5.52-18.09c0.2-0.62,0.5-1.09,0.89-1.4
			c0.39-0.31,0.93-0.47,1.62-0.47h2.53c0.58,0,1.06,0.04,1.45,0.13c0.39,0.09,0.71,0.24,0.96,0.45c0.25,0.22,0.44,0.51,0.57,0.89
			s0.22,0.84,0.26,1.41l0.84,6.63c0.06,0.43,0.1,0.88,0.14,1.35c0.04,0.47,0.07,0.94,0.1,1.41c0.03,0.47,0.05,0.92,0.07,1.36
			c0.01,0.44,0.03,0.86,0.04,1.25h0.04c0.17-0.39,0.36-0.82,0.56-1.28c0.2-0.46,0.41-0.93,0.63-1.41c0.22-0.48,0.44-0.95,0.66-1.41
			c0.22-0.46,0.45-0.9,0.68-1.3l3.44-6.61c0.25-0.52,0.49-0.96,0.75-1.33c0.25-0.37,0.54-0.66,0.86-0.89
			c0.32-0.22,0.69-0.39,1.12-0.5s0.93-0.16,1.53-0.16h2.92c0.68,0,1.16,0.16,1.45,0.47c0.29,0.31,0.4,0.78,0.32,1.4L964.36,432.6z"
			/>
		<path class="st4" d="M1000.1,432.71c-0.03,0.15-0.1,0.27-0.22,0.38c-0.12,0.11-0.29,0.2-0.51,0.27c-0.22,0.07-0.51,0.13-0.87,0.16
			c-0.35,0.04-0.8,0.05-1.33,0.05c-0.52,0-0.95-0.02-1.3-0.05c-0.35-0.04-0.62-0.09-0.81-0.16c-0.19-0.07-0.32-0.16-0.39-0.27
			c-0.06-0.11-0.08-0.23-0.03-0.38l3.1-15.55h-7.32l-3.1,15.55c-0.03,0.15-0.1,0.27-0.21,0.38c-0.11,0.11-0.28,0.2-0.51,0.27
			c-0.23,0.07-0.53,0.13-0.89,0.16c-0.36,0.04-0.8,0.05-1.32,0.05c-0.53,0-0.97-0.02-1.31-0.05c-0.34-0.04-0.6-0.09-0.79-0.16
			c-0.19-0.07-0.31-0.16-0.37-0.27c-0.06-0.11-0.07-0.23-0.04-0.38l3.66-18.3c0.12-0.58,0.32-1.01,0.63-1.31
			c0.3-0.3,0.71-0.44,1.23-0.44h15.21c0.51,0,0.85,0.15,1.03,0.44c0.18,0.3,0.21,0.73,0.1,1.31L1000.1,432.71z"/>
		<path class="st4" d="M1036.65,432.73c-0.06,0.3-0.29,0.52-0.68,0.65c-0.4,0.13-1.04,0.2-1.92,0.2c-0.45,0-0.81-0.01-1.09-0.04
			c-0.28-0.03-0.51-0.08-0.68-0.14c-0.17-0.06-0.29-0.15-0.34-0.26c-0.05-0.11-0.06-0.24-0.03-0.4l0.61-3.1
			c-0.22,0.46-0.56,0.95-1.04,1.46c-0.48,0.51-1.04,0.98-1.69,1.4c-0.65,0.42-1.37,0.77-2.16,1.04c-0.79,0.27-1.6,0.41-2.44,0.41
			c-1.16,0-2.12-0.2-2.88-0.61c-0.77-0.4-1.38-0.95-1.84-1.64c-0.46-0.69-0.79-1.47-0.99-2.35c-0.2-0.88-0.29-1.8-0.29-2.77
			c0-0.91,0.09-1.9,0.26-2.98c0.17-1.08,0.44-2.15,0.8-3.22c0.36-1.07,0.82-2.1,1.39-3.09c0.56-0.99,1.24-1.87,2.03-2.63
			c0.79-0.77,1.69-1.38,2.71-1.83c1.02-0.46,2.17-0.68,3.46-0.68c1.2,0,2.26,0.25,3.18,0.75c0.92,0.5,1.73,1.22,2.43,2.18l0.35-1.71
			c0.06-0.3,0.28-0.52,0.68-0.65c0.4-0.13,1.04-0.2,1.92-0.2c0.43,0,0.79,0.02,1.08,0.05c0.29,0.04,0.52,0.09,0.68,0.15
			c0.17,0.06,0.28,0.15,0.34,0.26c0.06,0.11,0.07,0.24,0.04,0.38L1036.65,432.73z M1033.96,419.17c-0.51-0.79-1.06-1.39-1.68-1.79
			c-0.61-0.4-1.32-0.6-2.13-0.6c-0.61,0-1.16,0.14-1.67,0.43c-0.51,0.29-0.95,0.68-1.34,1.16c-0.39,0.48-0.73,1.04-1.03,1.68
			c-0.3,0.64-0.54,1.3-0.74,1.98c-0.19,0.69-0.34,1.38-0.43,2.08c-0.09,0.7-0.14,1.35-0.14,1.94c0,0.43,0.03,0.84,0.1,1.23
			c0.06,0.39,0.18,0.74,0.36,1.04c0.17,0.3,0.4,0.55,0.69,0.73c0.29,0.18,0.66,0.27,1.1,0.27c0.64,0,1.28-0.19,1.95-0.57
			c0.66-0.38,1.28-0.9,1.86-1.56c0.58-0.66,1.09-1.42,1.53-2.3c0.44-0.87,0.76-1.81,0.96-2.8L1033.96,419.17z"/>
		<path class="st4" d="M1073.78,432.71c-0.03,0.15-0.1,0.27-0.22,0.38c-0.12,0.11-0.29,0.2-0.51,0.27
			c-0.22,0.07-0.51,0.13-0.87,0.16c-0.35,0.04-0.8,0.05-1.33,0.05c-0.52,0-0.95-0.02-1.3-0.05c-0.35-0.04-0.61-0.09-0.8-0.16
			c-0.19-0.07-0.31-0.16-0.38-0.27c-0.07-0.11-0.08-0.23-0.03-0.38l1.52-7.6h-7.65l-1.52,7.6c-0.03,0.15-0.1,0.27-0.21,0.38
			c-0.11,0.11-0.27,0.2-0.5,0.27c-0.22,0.07-0.52,0.13-0.88,0.16c-0.36,0.04-0.8,0.05-1.32,0.05c-0.53,0-0.97-0.02-1.31-0.05
			c-0.34-0.04-0.61-0.09-0.8-0.16c-0.19-0.07-0.32-0.16-0.38-0.27c-0.06-0.11-0.07-0.23-0.04-0.38l3.86-19.32
			c0.03-0.14,0.1-0.27,0.21-0.38c0.11-0.11,0.27-0.2,0.5-0.27c0.22-0.07,0.51-0.13,0.87-0.16c0.35-0.04,0.8-0.05,1.33-0.05
			c0.53,0,0.97,0.02,1.31,0.05c0.34,0.04,0.61,0.09,0.8,0.16c0.2,0.07,0.32,0.16,0.38,0.27c0.06,0.11,0.07,0.23,0.04,0.38
			l-1.45,7.24h7.65l1.45-7.24c0.03-0.14,0.09-0.27,0.19-0.38s0.26-0.2,0.49-0.27c0.22-0.07,0.52-0.13,0.88-0.16
			c0.36-0.04,0.8-0.05,1.32-0.05c0.53,0,0.97,0.02,1.31,0.05c0.34,0.04,0.61,0.09,0.8,0.16c0.19,0.07,0.32,0.16,0.39,0.27
			c0.06,0.11,0.08,0.23,0.05,0.38L1073.78,432.71z"/>
		<path class="st4" d="M1150.04,432.71c-0.03,0.16-0.1,0.29-0.2,0.4c-0.1,0.11-0.28,0.2-0.52,0.27c-0.25,0.07-0.58,0.12-0.99,0.15
			c-0.42,0.03-0.96,0.04-1.64,0.04c-0.61,0-1.12-0.01-1.53-0.04c-0.41-0.03-0.72-0.08-0.94-0.15c-0.22-0.07-0.37-0.16-0.45-0.27
			c-0.08-0.11-0.1-0.24-0.06-0.4l1.71-7.3h-2.19c-0.66,0-1.25,0.09-1.76,0.27c-0.51,0.18-0.97,0.43-1.39,0.76
			c-0.42,0.32-0.81,0.72-1.17,1.19c-0.37,0.47-0.74,0.99-1.13,1.55l-2.24,3.38c-0.15,0.23-0.32,0.41-0.5,0.54s-0.42,0.23-0.71,0.3
			c-0.3,0.07-0.67,0.12-1.13,0.14c-0.46,0.02-1.04,0.03-1.73,0.03c-0.63,0-1.14-0.01-1.54-0.04s-0.7-0.07-0.92-0.12
			c-0.21-0.05-0.36-0.12-0.43-0.21c-0.08-0.09-0.11-0.19-0.11-0.3c0-0.06,0.02-0.13,0.05-0.23c0.03-0.09,0.1-0.23,0.19-0.4
			c0.09-0.17,0.23-0.38,0.39-0.63c0.17-0.25,0.39-0.56,0.66-0.93l2.29-3.14c0.83-1.11,1.64-1.95,2.43-2.51
			c0.79-0.56,1.56-0.92,2.3-1.06c-1.31-0.29-2.3-0.79-2.98-1.49c-0.68-0.71-1.02-1.57-1.02-2.58c0-0.61,0.09-1.21,0.27-1.81
			c0.18-0.6,0.47-1.18,0.87-1.73c0.4-0.56,0.92-1.08,1.58-1.57c0.65-0.49,1.45-0.91,2.38-1.27c0.93-0.35,2.03-0.64,3.28-0.84
			c1.26-0.21,2.69-0.31,4.3-0.31c0.68,0,1.34,0.01,2,0.02c0.65,0.01,1.29,0.04,1.92,0.07c0.63,0.03,1.25,0.06,1.87,0.09
			c0.62,0.03,1.24,0.07,1.85,0.13c0.49,0.03,0.85,0.18,1.08,0.47c0.23,0.28,0.28,0.68,0.17,1.2L1150.04,432.71z M1147.52,416.29
			c-0.42-0.06-0.89-0.1-1.4-0.13c-0.51-0.03-0.95-0.04-1.32-0.04c-1.12,0-2.04,0.11-2.75,0.34c-0.71,0.22-1.28,0.51-1.71,0.84
			c-0.42,0.34-0.72,0.72-0.89,1.15c-0.17,0.43-0.25,0.84-0.25,1.25c0,0.36,0.07,0.68,0.2,0.94c0.14,0.27,0.36,0.49,0.66,0.68
			c0.31,0.19,0.71,0.32,1.21,0.41c0.5,0.09,1.12,0.13,1.87,0.13h3.11L1147.52,416.29z"/>
		<path class="st4" d="M428.69,355.19c-0.43,0.28-17.95,0-17.95,0s13.69-61.73,14.76-61.73s27.39,0,27.39,0l4.61,38.6
			c0,0,24.76-38.81,24.98-38.6c0.21,0.21,28.88,0,28.88,0l-14.12,61.86h-19.37l6.17-36.31l-23.56,36.31h-11.14l-9.58-39.93
			L428.69,355.19z"/>
		<g>
			<polygon class="st4" points="666.71,307.34 670.03,293.01 653.19,293.01 649.58,307.34 			"/>
			<polygon class="st4" points="648.38,312.12 637.49,355.36 655.6,355.36 665.61,312.12 			"/>
		</g>
		<path class="st4" d="M591.49,311.75c-1.44,0.6-15.78,7.31-15.99,36.23c-0.01,1.27,0.37,2.52,1.14,3.54
			c0.02,0.02,0.04,0.05,0.06,0.07c1.66,2.17,4.28,3.39,7.02,3.39h25.25c0.38,0,0.67,0.34,0.61,0.72c-0.28,1.63-1.1,5.68-2.73,8.45
			c-0.11,0.19-0.31,0.3-0.53,0.3h-35.92c-0.28,0-0.53,0.2-0.6,0.47l-2.4,9.98c-0.09,0.39,0.2,0.76,0.6,0.76h45.48
			c0.04,0,0.07,0,0.1-0.01c0.9-0.16,13.49-2.74,15.37-21.91c0-0.02,0-0.03,0.01-0.05c0.16-0.81,4.24-21.22,6.86-30.85
			c0.72-2.65,1.08-5.38,1.08-8.12l0,0c0-1.66-1.35-3-3-3h-42.15C591.64,311.7,591.56,311.72,591.49,311.75z M613.73,346.13h-18.28
			c-0.08,0-0.15-0.01-0.23-0.04c-0.76-0.3-4.96-2.37-2.68-10.18c2.47-8.44,5.31-12.1,8.79-14.29c0.1-0.06,0.22-0.09,0.33-0.09h15.61
			c0.38,0,0.67,0.34,0.61,0.71l-3.55,23.37C614.29,345.91,614.04,346.13,613.73,346.13z"/>
		<path class="st4" d="M678.94,315.75c0.2-0.16,0.39-0.31,0.58-0.45c2.65-2.02,5.91-3.08,9.25-3.08h34.34l-2.89,9.65l-25.83-0.05
			c-0.8,0-1.59,0.27-2.22,0.77c-6.65,5.35-7.38,13.94-7.38,13.94c-0.58,5.68,2,8.21,3.49,9.18c0.54,0.35,1.16,0.52,1.8,0.52h23.85
			l-2.84,9.13h-32.91c-1.87,0-3.66-0.85-4.8-2.34c-3.66-4.81-3.87-9.06-3.87-9.06c-0.13-0.63-0.25-1.24-0.35-1.84
			C667.49,332.2,671.08,322.04,678.94,315.75z"/>
		<path class="st4" d="M1183.37,269.57c-24.48-25.4-63.82-43.09-105.33-55.4l0,0l-0.04-0.01c-2.54-0.75-5.08-1.48-7.63-2.19
			l-31.13-8.96c-1.53-0.53-3.46-1.08-5.75-1.65l0,0l0,0c-19.82-4.93-66.61-11.04-114.91-14.04c-8.08-0.54-13.04-0.74-13.9-0.77
			c-66.53-3.25-169.11,14.41-169.11,14.41l0.01,0c-248.79,31.46-464.69,101.9-576.97,143.58c-4.01,1.49-1.95,7.51,2.13,6.23
			l185.66-58.13c0,0,363.89-98.92,559.67-84.57c195.78,14.35,198.86,37.93,243.45,64.07s60.73,73.03,58.43,98.66
			c-2.08,23.15,5.73,18.35,7.26,17.2c0.16-0.12,0.31-0.26,0.45-0.41C1218.62,384.31,1253.54,342.36,1183.37,269.57z"/>
		<path class="st4" d="M492.54,410.62c0,0-4.33-1.49-11.71,1.81v4.4c0,0,3.8-1.84,6.92-2.2c3.12-0.35,3.58,1.45,3.58,1.45v2.52
			c0,0-6.65-0.19-11.43,3.19c-1.85,1.31-2.92,3.46-2.84,5.73c0.07,2.2,0.65,4.89,2.88,5.67c0,0,4.58,1.45,9.72-2.7v2.5h4.79
			l2.27-15.34C496.73,417.64,498.04,413.07,492.54,410.62z M485.59,429.18c-0.24,0.09-0.49,0.15-0.75,0.16
			c-1.64,0.08-2.43-0.62-2.79-1.43c-0.5-1.11-0.13-2.42,0.78-3.23c4.31-3.79,8.08-2.35,8.08-2.3
			C491.39,426.68,486.96,428.67,485.59,429.18z"/>
		<path class="st4" d="M778.63,410.62c0,0-4.33-1.49-11.71,1.81v4.4c0,0,3.8-1.84,6.92-2.2c3.12-0.35,3.58,1.45,3.58,1.45v2.52
			c0,0-6.65-0.19-11.43,3.19c-1.85,1.31-2.92,3.46-2.84,5.73c0.07,2.2,0.65,4.89,2.88,5.67c0,0,4.58,1.45,9.72-2.7v2.5h4.79
			l2.27-15.34C782.82,417.64,784.13,413.07,778.63,410.62z M771.68,429.18c-0.24,0.09-0.49,0.15-0.75,0.16
			c-1.64,0.08-2.43-0.62-2.79-1.43c-0.5-1.11-0.13-2.42,0.78-3.23c4.31-3.79,8.08-2.35,8.08-2.3
			C777.48,426.68,773.05,428.67,771.68,429.18z"/>
		<path class="st4" d="M1095.25,411.46c0.25,0,5.14,0,5.14,0l-2.8,15.68l11-15.68h6.95l-3.9,22.28h-4.9l2.41-16l-10.96,16.14h-6.1
			L1095.25,411.46z"/>
	</g>
</g>
</svg>
