<svg width="246" height="142" viewBox="0 0 246 142" fill="none" xmlns="http://www.w3.org/2000/svg">
<path d="M86.2026 69.0315C88.2351 61.7268 91.9692 57.0245 96.1849 51.4795C102.764 42.8261 108.84 33.6272 115.332 24.8782C116.009 23.9664 118.072 20.247 119.308 20.0117C120.526 19.7796 119.595 23.0509 119.595 24.5774C119.595 31.6492 119.595 38.7211 119.595 45.7929C119.595 47.5749 119.028 53.8488 120.655 55.0337C124.442 57.7916 131.576 50.9854 134.171 48.9096C138.249 45.6468 142.202 42.1585 145.964 38.3565C148.365 35.9298 150.713 32.8837 153.428 30.9749C155.532 29.4959 157.022 43.1676 157.271 44.4806C158.037 48.5155 158.643 54.6544 161.18 57.795C164.581 62.0047 171.46 55.3164 174.188 53.2566C178.002 50.3768 181.586 47.0994 185.319 44.0705C187.669 42.1633 189.949 40.3289 192.806 40.0516C196.033 39.7383 196.631 46.0785 197.797 48.9643C199.45 53.0567 201.32 58.9589 205.328 60.2282C210.846 61.9757 217.239 55.4644 221.449 51.917C225.166 48.785 228.751 45.2992 232.757 42.7309C233.621 42.1767 235.886 40.537 237.041 41.1999C238.005 41.7526 238.256 43.4492 238.543 44.5353C239.309 47.4371 240.49 50.101 241.458 52.9012C242.735 56.5949 243.806 60.4287 243.998 64.4658C244.202 68.7542 229.363 67.9478 227.147 68.184C201.499 70.9185 176.621 81.4726 151.419 87.4583C112.367 96.7335 72.5528 100.477 33.8839 112.201C28.0778 113.961 22.2764 115.775 16.5916 118.079C12.198 119.859 7.0275 121.689 3.16406 125.023C1.50072 126.458 1.81177 129.301 2.89904 131.147C7.17617 138.408 15.4704 141.709 22.5103 139.13C29.0021 136.752 35.9144 131.382 38.8309 123.601C42.3289 114.269 42.2508 103.716 39.6922 94.0472C38.1849 88.3513 36.2825 83.5135 36.1365 77.3701C35.9529 69.64 37.1016 63.8295 42.6295 59.5173C57.1064 48.2243 75.6904 44.9759 92.298 42.7309C127.011 38.0382 161.528 42.4051 195.743 50.2766C208.862 53.2947 221.835 57.2181 234.965 60.1735C236.376 60.491 237.578 60.9623 238.852 60.1735" stroke="white" stroke-width="2.19202" stroke-linecap="round"/>
<path d="M20 44.1982C26.3634 44.754 32.2957 49.0323 38.3138 50.9581C42.6916 52.359 45.2357 54.7938 47.8016 58.6599C49.9934 61.9623 54.3355 70.2262 51.7733 74.2298C50.7658 75.8039 49.3932 77.0526 48.4084 78.607C47.5312 79.9917 49.3259 75.4441 50.0081 73.9527C51.7693 70.1024 52.7996 66.0124 53.6488 61.8736C56.1005 49.9251 52.8392 40.0373 47.8568 29.1271C45.0205 22.9162 40.5152 16.7426 39.8859 9.78942C39.4069 4.49745 51.2539 2.97979 54.5314 2.614C62.0124 1.77906 72.0427 0.888281 78.0028 6.57572C81.1521 9.58091 77.6646 14.8598 75.8239 17.325C72.866 21.2865 66.2768 26.7552 66.7773 32.2854C67.1703 36.6273 71.1636 40.7213 73.6726 43.9766C77.0285 48.3308 80.662 52.3717 83.4914 57.1085C87.9595 64.5887 89.1769 74.4366 88.98 83.0397C88.8612 88.2334 88.3591 92.5418 85.9461 97.169C84.1072 100.695 82.145 104.181 80.0438 107.558C77.6455 111.412 75.4211 114.623 74.1139 119" stroke="white" stroke-width="2.19202" stroke-linecap="round"/>
</svg>
