<svg xmlns="http://www.w3.org/2000/svg" width="64" height="64" viewBox="0 0 64 64"><defs><style>.a,.b{fill-rule:evenodd}.a{fill:url(#a)}.b{fill:#4d4976}</style><linearGradient id="a" x1="32" y1="15.93" x2="32" y2="42.245" gradientUnits="userSpaceOnUse"><stop offset="0" stop-color="#9491b1"/><stop offset="1" stop-color="#5d5891"/></linearGradient></defs><title>plane_color</title><path class="a" d="M49.425 28.652c2.84 0 5.141 2.117 5.141 3.348s-2.302 3.348-5.141 3.348H25.113a29.02 29.02 0 0 1-10.99-1.938 7.425 7.425 0 0 1-3.548 5.11c-.806.466-1.141.11-1.141-.532V26.012c0-.641.335-.998 1.141-.533a7.425 7.425 0 0 1 3.549 5.11 29.019 29.019 0 0 1 10.989-1.937h24.312z"/><path class="b" d="M49.54 30.576a.565.565 0 1 1 .368-1.07 2.638 2.638 0 0 1 0 4.988.566.566 0 1 1-.369-1.07 1.508 1.508 0 0 0 0-2.848zM30.478 10.518l2.16 18.134h6.98c-1.137-3.26-4.766-13.665-5.637-16.076a5.401 5.401 0 0 0-2.398-2.897c-.86-.497-1.193.099-1.105.839zm0 42.964l2.16-18.134h6.98c-1.137 3.26-4.766 13.665-5.637 16.076a5.4 5.4 0 0 1-2.398 2.897c-.86.497-1.193-.099-1.105-.839z"/></svg>
