<svg xmlns="http://www.w3.org/2000/svg" width="64" height="64" viewBox="0 0 64 64"><defs><style>.a{fill-rule:evenodd;fill:url(#a)}.b{fill:url(#b)}.c{fill:url(#c)}</style><linearGradient id="a" x1="38.435" y1="42.236" x2="36.497" y2="5.382" gradientUnits="userSpaceOnUse"><stop offset="0" stop-color="#ea7207"/><stop offset=".201" stop-color="#ec7906"/><stop offset=".489" stop-color="#f08c05"/><stop offset=".827" stop-color="#f7aa02"/><stop offset="1" stop-color="#fbbd00"/></linearGradient><linearGradient id="b" x1="22.829" y1="42.865" x2="21.622" y2="31.225" gradientUnits="userSpaceOnUse"><stop offset="0" stop-color="#31aae1"/><stop offset="1" stop-color="#0083be"/></linearGradient><linearGradient id="c" x1="22.065" y1="36.997" x2="22.065" y2="41.055" gradientUnits="userSpaceOnUse"><stop offset="0" stop-color="#fff"/><stop offset="1" stop-color="#e3f2f9"/></linearGradient></defs><title>like_color</title><path class="a" d="M39.16 26.5h8.34a2 2 0 0 1 0 4h-1.01a2 2 0 0 1 0 4h-1a2 2 0 0 1 0 4h-1a2 2 0 0 1 0 4h-5.486l-.009.04H33.5a12.865 12.865 0 0 1-6.964-2.375V28.289c8.625 0 7.5-10.375 10.625-10.375s2.625 4.875 2.062 6.25-.813 2.336-.062 2.336z"/><path class="b" d="M17.596 27.501h8.94V43.5h-8.94z"/><circle class="c" cx="22.066" cy="39.5" r="2"/></svg>
