<svg xmlns="http://www.w3.org/2000/svg" width="64" height="64" viewBox="0 0 64 64"><defs><style>.a{fill:#ffdb16}.a,.b,.c,.d,.e{fill-rule:evenodd}.b{fill:#f5881f}.c{fill:#f9a11b}.d,.f{fill:#f07420}.e{fill:#f5871f}</style></defs><title>coins-1-rub_color</title><path class="a" d="M37.452 19.25c5.357 0 9.726-2.022 9.726-4.5s-4.369-4.5-9.726-4.5-9.726 2.021-9.726 4.5 4.37 4.5 9.726 4.5z"/><path class="b" d="M47.178 44.75c0 2.485-4.355 4.5-9.726 4.5s-9.726-2.015-9.726-4.5v-5c0 2.485 4.355 4.5 9.726 4.5s9.726-2.015 9.726-4.5v5z"/><path class="c" d="M47.178 39.75c0 2.485-4.355 4.5-9.726 4.5s-9.726-2.015-9.726-4.5v-5c0 2.485 4.355 4.5 9.726 4.5s9.726-2.015 9.726-4.5v5z"/><path class="b" d="M47.178 34.75c0 2.485-4.355 4.5-9.726 4.5s-9.726-2.015-9.726-4.5v-5c0 2.485 4.355 4.5 9.726 4.5s9.726-2.015 9.726-4.5v5zM37.452 49.25c0 2.485-4.355 4.5-9.726 4.5S18 51.735 18 49.25v-5c0 2.485 4.355 4.5 9.726 4.5s9.726-2.015 9.726-4.5v5z"/><path class="c" d="M47.178 29.75c0 2.485-4.355 4.5-9.726 4.5s-9.726-2.015-9.726-4.5v-5c0 2.485 4.355 4.5 9.726 4.5s9.726-2.015 9.726-4.5v5zM37.452 44.25c0 2.485-4.355 4.5-9.726 4.5S18 46.735 18 44.25v-5c0 2.485 4.355 4.5 9.726 4.5s9.726-2.015 9.726-4.5v5zM47.178 19.75c0 2.485-4.355 4.5-9.726 4.5s-9.726-2.015-9.726-4.5v-5c0 2.485 4.355 4.5 9.726 4.5s9.726-2.015 9.726-4.5v5z"/><path class="c" d="M37.452 34.25c0 2.485-4.355 4.5-9.726 4.5S18 36.735 18 34.25v-5c0 2.485 4.355 4.5 9.726 4.5s9.726-2.015 9.726-4.5v5z"/><path class="b" d="M47.178 24.75c0 2.485-4.355 4.5-9.726 4.5s-9.726-2.015-9.726-4.5v-5c0 2.485 4.355 4.5 9.726 4.5s9.726-2.015 9.726-4.5v5zM37.452 39.25c0 2.485-4.355 4.5-9.726 4.5S18 41.735 18 39.25v-5c0 2.485 4.355 4.5 9.726 4.5s9.726-2.015 9.726-4.5v5z"/><path class="d" d="M47.178 44.75c0 1.861-2.444 3.46-5.928 4.144v-5c3.484-.685 5.928-2.283 5.928-4.144v5z"/><path class="e" d="M47.178 39.75c0 1.861-2.444 3.459-5.928 4.144v-5c3.484-.685 5.928-2.283 5.928-4.144v5z"/><path class="d" d="M47.178 34.75c0 1.861-2.444 3.459-5.928 4.144v-5c3.484-.685 5.928-2.283 5.928-4.144v5zM37.452 49.25c0 1.861-2.444 3.46-5.928 4.144v-5c3.484-.685 5.928-2.283 5.928-4.144v5z"/><path class="e" d="M47.178 29.75c0 1.861-2.444 3.459-5.928 4.144v-5c3.484-.685 5.928-2.283 5.928-4.144v5zM37.452 44.25c0 1.861-2.444 3.459-5.928 4.144v-5c3.484-.685 5.928-2.283 5.928-4.144v5zM47.178 19.75c0 1.861-2.444 3.459-5.928 4.144v-5c3.484-.685 5.928-2.283 5.928-4.144v5zM37.452 34.25c0 1.861-2.444 3.459-5.928 4.143v-5c3.484-.684 5.928-2.282 5.928-4.143v5z"/><path class="d" d="M47.178 24.75c0 1.861-2.444 3.459-5.928 4.144v-5c3.484-.685 5.928-2.283 5.928-4.144v5zM37.452 39.25c0 1.861-2.444 3.459-5.928 4.144v-5c3.484-.685 5.928-2.283 5.928-4.144v5z"/><path class="a" d="M27.726 33.75c5.357 0 9.726-2.022 9.726-4.5s-4.369-4.5-9.726-4.5S18 26.77 18 29.25s4.37 4.5 9.726 4.5z"/><path class="f" d="M17.604 23h-2v-1.5H13.08v-2h2.524V9.504h3.948a3.949 3.949 0 0 1 0 7.898h-1.948V19.5h2.411v2h-2.411V23zm0-7.598h1.948a1.949 1.949 0 0 0 0-3.898h-1.948v3.898z"/></svg>
