<svg xmlns="http://www.w3.org/2000/svg" width="64" height="64" viewBox="0 0 64 64"><defs><style>.a{fill:#7687a0}.a,.b,.c{fill-rule:evenodd}.b{fill:#ffa841}.c{fill:#db7900}.d{fill:#9ba9bc}</style></defs><title>shower_color</title><path class="a" d="M26.196 24.243a11 11 0 1 1 22 0v27h-2v-27c0-5.246-3.753-9.5-9-9.5a9.5 9.5 0 0 0-9.5 9.5h-1.5z"/><path class="b" d="M35.196 32.243a8 8 0 1 0-16 0h16z"/><path class="c" d="M19.196 34.243h16a1.003 1.003 0 0 1 1 1 1.003 1.003 0 0 1-1 1h-16a1.003 1.003 0 0 1-1-1 1.003 1.003 0 0 1 1-1z"/><circle class="d" cx="27.196" cy="40.243" r="1"/><circle class="d" cx="27.196" cy="45.243" r="1"/><circle class="d" cx="27.196" cy="50.243" r="1"/><circle class="d" cx="33.369" cy="40.623" r="1" transform="rotate(-22.505 33.369 40.623)"/><circle class="d" cx="35.282" cy="45.243" r="1" transform="rotate(-22.497 35.282 45.243)"/><circle class="d" cx="37.196" cy="49.863" r="1" transform="rotate(-22.498 37.196 49.863)"/><circle class="d" cx="21.023" cy="40.623" r="1" transform="rotate(-67.495 21.023 40.623)"/><circle class="d" cx="19.11" cy="45.243" r="1" transform="rotate(-67.503 19.11 45.243)"/><circle class="d" cx="17.196" cy="49.863" r="1" transform="rotate(-67.502 17.196 49.863)"/></svg>
