<svg xmlns="http://www.w3.org/2000/svg" width="64" height="64" viewBox="0 0 64 64" xmlns:xlink="http://www.w3.org/1999/xlink"><defs><path id="a" d="M0 9.01c0-.558.415-1.185.916-1.396L19 0l18.084 7.614c.506.213.916.83.916 1.395v1.982c0 .557-.453 1.009-.997 1.009H.997A.998.998 0 0 1 0 10.99V9.01z"/><linearGradient id="c" x1="50%" x2="50%" y1="0%" y2="100%"><stop stop-color="#798DCC" offset="0%"/><stop stop-color="#6C7EC5" offset="100%"/></linearGradient><linearGradient id="d" x1="50%" x2="50%" y1="0%" y2="100%"><stop stop-color="#4C609C" offset="0%"/><stop stop-color="#2C3A6E" offset="100%"/></linearGradient><linearGradient id="e" x1="50%" x2="50%" y1="0%" y2="100%"><stop stop-color="#FFE0D4" offset="0%"/><stop stop-color="#FFCEBD" offset="100%"/></linearGradient><linearGradient id="f" x1="50%" x2="50%" y1="0%" y2="100%"><stop stop-color="#FFE36E" offset="0%"/><stop stop-color="#F1BD3A" offset="100%"/></linearGradient><path id="g" d="M29 16c0-7.732-6.268-14-14-14S1 8.268 1 16h28z"/><filter id="h" width="200%" height="200%" x="-50%" y="-50%" filterUnits="objectBoundingBox"><feOffset dy="1" in="SourceAlpha" result="shadowOffsetInner1"/><feComposite in="shadowOffsetInner1" in2="SourceAlpha" operator="arithmetic" k2="-1" k3="1" result="shadowInnerInner1"/><feColorMatrix values="0 0 0 0 1 0 0 0 0 1 0 0 0 0 1 0 0 0 0.2 0" in="shadowInnerInner1"/></filter><linearGradient id="i" x1="50%" x2="50%" y1="0%" y2="39.999%"><stop stop-color="#F8E175" offset="0%"/><stop stop-color="#EDBF41" offset="100%"/></linearGradient><linearGradient id="j" x1="50%" x2="50%" y1="0%" y2="100%"><stop stop-color="#FFCE56" offset="0%"/><stop stop-color="#E9B123" offset="100%"/></linearGradient></defs><g fill="none" fill-rule="evenodd"><path fill="#253360" d="M23.294 44.993l1.732-1 1 1.732-1.732 1zm14 0l1.732-1 1 1.732-1.732 1z"/><g transform="translate(13 42)"><mask id="b" fill="#fff"><use xlink:href="#a"/></mask><use fill="#F8C0AD" xlink:href="#a"/><path fill="#000" d="M19 5c6.075 0 12-11.925 12-18 0-6.075-5.925-11-12-11S7-19.075 7-13 12.925 5 19 5z" opacity=".05" mask="url(#b)"/></g><path fill="url(#c)" d="M13.469 2.329L.916 7.614C.415 7.825 0 8.452 0 9.01v1.982A.997.997 0 0 0 .997 12h36.006c.544 0 .997-.452.997-1.01V9.01c0-.567-.41-1.183-.916-1.396L24.53 2.33a6.002 6.002 0 0 1-11.062 0z" transform="translate(13 42)"/><path fill="url(#d)" d="M7 4.222L12 2v10H7V4.222zm24 0L26 2v10h5V4.222z" transform="translate(13 42)"/><path fill="url(#e)" d="M19 36c6.075 0 12-11.925 12-18 0-6.075-5.925-11-12-11S7 11.925 7 18s5.925 18 12 18z" transform="translate(13 10)"/><g transform="translate(17 10)"><use fill="url(#f)" xlink:href="#g"/><use fill="#000" filter="url(#h)" xlink:href="#g"/><rect width="4" height="10" x="13" fill="url(#i)" rx="2"/><rect width="30" height="4" y="14" fill="url(#j)" rx="2"/><path fill="#FFF" d="M0 15.86A1.86 1.86 0 0 1 1.863 14h19.274c1.029 0 1.044.142.039.317L1.824 17.683C.817 17.858 0 17.17 0 16.14v-.282z" opacity=".203"/></g></g></svg>
