<svg xmlns="http://www.w3.org/2000/svg" width="64" height="64" viewBox="0 0 64 64"><defs><style>.a{fill:#fff3de}.b,.f{fill:#7687a0}.c{fill:none;stroke:#000;stroke-miterlimit:22.9256}.d{fill:#fd8e00}.e{fill:#db7900}.e,.f,.g,.h,.j{fill-rule:evenodd}.g{fill:#b94a00}.h{fill:#ffa841}.i,.j{fill:#f60}</style></defs><title>worker_color</title><path class="a" d="M38.523 33.183H54.4a1 1 0 0 1 1 1v20a1 1 0 0 1-1 1H38.523a1 1 0 0 1-1-1v-20a1 1 0 0 1 1-1z"/><path class="b" d="M43.461 31.183h6v2h-6z"/><path class="c" d="M43.024 37.183h9.875"/><path class="d" d="M22.025 32.5h9.076v11h-9.076z"/><path class="e" d="M22.025 32.5h9.076v3.07A6.401 6.401 0 0 1 26.324 38a6.15 6.15 0 0 1-4.299-1.923V32.5z"/><path d="M40.08 36.684h.818v1h-.818zM43.023 39.684h9.875v1h-9.875zM40.049 39.684h.85v1h-.85zM43.023 42.624h9.875v1h-9.875zM40.049 42.624h.85v1h-.85zM43.023 45.684h9.875v1h-9.875zM40.049 45.684h.85v1h-.85zM47.898 51.683h5v1h-5z"/><path class="f" d="M26.563 55.356l-17.96-.173V47.39s2.845-5.959 13.422-9.051l4.538 5.046L31.1 38.34a30.908 30.908 0 0 1 6.423 2.643V55.25z"/><path class="g" d="M33.617 39.179a28.957 28.957 0 0 1 4 1.855l-.114 14.203-4 .038zM19.524 55.288l-4-.038V41.026a29.012 29.012 0 0 1 4-1.853v16.115z"/><path class="h" d="M18.363 25.728c.609 5.96 3.943 10.518 7.96 10.518 3.987 0 7.3-4.486 7.947-10.376a37.646 37.646 0 0 1-7.668.835 36.47 36.47 0 0 1-8.24-.977z"/><path class="i" d="M26.024 45.9h1v.567h-1zM26.024 48.9h1v.567h-1zM26.024 51.9h1v.567h-1z"/><path class="j" d="M35.247 19.415c2.077.668 3.355 1.576 3.355 2.576 0 2.051-5.373 3.714-12 3.714s-12-1.663-12-3.714c0-.907 1.052-1.739 2.797-2.383a1.715 1.715 0 0 0 .078.437 8.935 8.935 0 0 1 6.841-9.896v5.628h.567V10.04a8.987 8.987 0 0 1 3.433.107v5.631h.567v-5.481a8.938 8.938 0 0 1 6.287 9.753 1.713 1.713 0 0 0 .08-.513q0-.06-.005-.12zM19.09 21.777a14.935 14.935 0 0 0 7.235 1.585 14.939 14.939 0 0 0 7.236-1.585H19.09z"/></svg>
