<svg xmlns="http://www.w3.org/2000/svg" xmlns:xlink="http://www.w3.org/1999/xlink" width="64" height="64" viewBox="0 0 64 64"><defs><style>.a,.b{fill-rule:evenodd}.a{fill:url(#a)}.b{fill:url(#b)}.c{fill:url(#c)}.d{fill:url(#d)}.e{fill:#ececec}</style><linearGradient id="a" x1="32.365" y1="43.749" x2="32.365" y2="22.146" gradientUnits="userSpaceOnUse"><stop offset="0" stop-color="#31aae1"/><stop offset="1" stop-color="#0083be"/></linearGradient><linearGradient id="b" x1="31.088" y1="42.997" x2="29.82" y2="11.076" gradientUnits="userSpaceOnUse"><stop offset="0" stop-color="#ea7207"/><stop offset=".201" stop-color="#ec7906"/><stop offset=".489" stop-color="#f08c05"/><stop offset=".827" stop-color="#f7aa02"/><stop offset="1" stop-color="#fbbd00"/></linearGradient><linearGradient id="c" x1="13.179" y1="37.405" x2="11.262" y2="17.949" xlink:href="#b"/><linearGradient id="d" x1="52.029" y1="37.544" x2="52.029" y2="24.732" xlink:href="#a"/></defs><title>hands_color</title><path class="a" d="M45.124 26.027c-2.313-.088-4.626-1.379-6.788-2.559-2.99-1.63-6.14-.683-9.533-1.268a2.638 2.638 0 0 0-1.758.45 2.338 2.338 0 0 0-1.505.431c-.153.1-.283.269-.423.363-2.85 1.915-3.17 2.222-6.323 2.218-.886-.001-.175.483-.223.776-.03.178-.127-.221-.19.333l-.746 6.469.042 1.628a1.966 1.966 0 0 0 .361 1.072.766.766 0 0 0 .755.599c.067.018-.144 1.7-.158 1.984-.047.974.126 1.683.87 1.762 1.075.113 2.09-.974 2.95-1.741.302-.27.596-.237.43.168-.28.682-1.125 2.616-.183 3.312.493.364 1.798.678 3.282-1.4-.662 5.256 3.056 2.532 3.742 1.448-2.508-1.869-6.528-5.052-9.918-5.23a7.864 7.864 0 0 1-.953-.187c-.591-.08-.48-.625-.638-.895a1.857 1.857 0 0 1-.596-1.415c-.022-1.811.036-3.636.015-5.446a22.812 22.812 0 0 1 .72-2.76.781.781 0 0 1 .79-.367c3.199.064 4.15-1.172 6.69-2.828a2.759 2.759 0 0 1 1.254-.492 3.268 3.268 0 0 1 1.713-.252c1.122.286.424.88-1.006 2.07a32.501 32.501 0 0 0-2.706 2.21l-.556.454c-.81.66-.035 1.46.66 1.721 1.285.484 3.255-.63 5.09-1.198 2.792-.864 5.013-.378 6.75 2.001 1.21 1.656 2.468 3.172 3.718 4.708a39.988 39.988 0 0 1 3.066 3.908c.031.055.06.11.087.164q.977-.396 1.92-.852c1.473-.716 1.284-.429 1.274-2.007l-.05-7.949c-.01-1.78.024-1.329-1.926-1.403zM31.982 41.355l-1.628-4.068 2.85 4.053-1.222.015zm4.574-.83l-3.182-4.156c-.283-.369 1.117-.7 1.955.53.478.701 1.035 2.908 1.561 3.542l-.333.084zm3.666-1.226l-.49.103c-1.873-1.384-11.836-9.233-6.12-5.754 1.197.728 4.364 2.338 3.852 1.53z"/><path class="b" d="M28.725 22.18a3.193 3.193 0 0 0-2.678.324c-2.108 1.223-4.138 3.332-7.701 2.998a.926.926 0 0 0-.625.09c.013.259-.091 2.824-.085 3.307.022 1.81-.04 3.845-.018 5.656.027 2.139.647 2.109 2.967 2.451 4.072.602 8.663 5.91 11.065 6.44a1.197 1.197 0 0 0 1.326-1.85c-.87-1.42-1.466-2.563-2.622-4.309 1.151 1.57 3.264 5.685 5.318 5.596a1.199 1.199 0 0 0 1.264-1.217 9.353 9.353 0 0 0-1.293-2.661c-.799-1.388-1.561-2.632-1.528-2.592a41.943 41.943 0 0 0 3.225 4.542 1.932 1.932 0 0 0 2.704.487c.72-.468.477-1.254-.054-2.064a22.958 22.958 0 0 1-2.526-4.2 17.873 17.873 0 0 0 1.515 2.625c1.094 1.598 2.524 3.19 3.618 3.05 1.32-.17 1.835-1.243 1.222-2.779a21.877 21.877 0 0 0-2.902-4.096L37.2 29.271a6.14 6.14 0 0 0-6.915-1.814c-1.835.569-3.805 1.682-5.09 1.198-.695-.262-1.47-1.06-.66-1.721l.556-.454c.902-.737 1.827-1.447 2.706-2.21 1.86-1.614 2.479-1.822.928-2.09z"/><path class="c" d="M10.25 24.732h4.623a.877.877 0 0 1 .877.877v11.058a.877.877 0 0 1-.877.877H10.25a.877.877 0 0 1-.877-.877V25.609a.877.877 0 0 1 .877-.877z"/><path class="d" d="M49.717 24.732h4.623a.877.877 0 0 1 .877.878v11.057a.877.877 0 0 1-.877.877h-4.623a.877.877 0 0 1-.877-.877V25.609a.877.877 0 0 1 .877-.877z"/><circle class="e" cx="12.457" cy="34.92" r="1.272"/><circle class="e" cx="51.924" cy="34.92" r="1.272"/></svg>
