<svg xmlns="http://www.w3.org/2000/svg" xmlns:xlink="http://www.w3.org/1999/xlink" width="64" height="64" viewBox="0 0 64 64"><defs><style>.a,.b,.c,.d,.e{fill-rule:evenodd}.a{fill:url(#a)}.b{fill:url(#b)}.c{fill:url(#c)}.d{fill:url(#d)}.e{fill:url(#e)}</style><linearGradient id="a" x1="30.057" y1="47.45" x2="30.057" y2="23.738" gradientUnits="userSpaceOnUse"><stop offset="0" stop-color="#31aae1"/><stop offset="1" stop-color="#0083be"/></linearGradient><linearGradient id="b" x1="33.732" y1="53.733" x2="33.711" y2="48.498" gradientUnits="userSpaceOnUse"><stop offset="0" stop-color="#ea7207"/><stop offset=".201" stop-color="#ec7906"/><stop offset=".489" stop-color="#f08c05"/><stop offset=".827" stop-color="#f7aa02"/><stop offset="1" stop-color="#fbbd00"/></linearGradient><linearGradient id="c" x1="28.692" y1="21.945" x2="28.692" y2="11.355" gradientUnits="userSpaceOnUse"><stop offset="0" stop-color="#e84c0a"/><stop offset="1" stop-color="#fbbd00"/></linearGradient><linearGradient id="d" x1="36.692" y1="21.945" x2="36.692" y2="11.355" xlink:href="#c"/><linearGradient id="e" x1="32.694" y1="21.944" x2="32.694" y2="9.224" xlink:href="#c"/></defs><title>coffee_color</title><path class="a" d="M22.931 23.738H44.46c2.23 0 4.408 1.854 4.055 4.056l-2.496 15.6c-.352 2.2-1.826 4.056-4.055 4.056H25.427c-2.2 0-3.664-1.805-4.041-3.97a8.896 8.896 0 0 1-6.849-2.801 10.599 10.599 0 0 1-1.925-2.862 11.607 11.607 0 0 1-.939-3.128c-.345-2.309.11-4.481 1.313-5.625a5.507 5.507 0 0 1 5.952-.878l-.063-.392c-.352-2.203 1.825-4.056 4.056-4.056zm-1.866 17.744L19.31 30.515c-1.295-.685-3.443-1.44-4.95-.006-.721.687-.964 2.195-.71 3.89a9.588 9.588 0 0 0 .775 2.582 8.6 8.6 0 0 0 1.557 2.323 6.945 6.945 0 0 0 5.083 2.178z"/><path class="b" d="M54.137 50.36a3.741 3.741 0 0 1-3.713 3.388H17.012A3.741 3.741 0 0 1 13.3 50.36h40.838z"/><path class="c" d="M28.691 11.665a.749.749 0 1 1 1.213.878c-.005.007-1.772 2.354-.788 3.504.05.06.095.114.132.163l-.002.002a3.877 3.877 0 0 1 .618 3.204 4.47 4.47 0 0 1-1.222 2.307l-.017.014-.054.044a.748.748 0 1 1-.937-1.166l.04-.033a2.91 2.91 0 0 0 .726-1.477 2.424 2.424 0 0 0-.344-1.993h-.003a2.088 2.088 0 0 0-.074-.092c-1.78-2.083.706-5.346.712-5.355z"/><path class="d" d="M36.692 11.665a.749.749 0 1 1 1.212.878c-.004.007-1.772 2.354-.788 3.504.051.06.096.114.133.163l-.002.002a3.877 3.877 0 0 1 .618 3.204 4.468 4.468 0 0 1-1.222 2.307l-.018.014-.054.044a.748.748 0 1 1-.937-1.166l.041-.033a2.91 2.91 0 0 0 .725-1.477 2.424 2.424 0 0 0-.344-1.993h-.003a2.088 2.088 0 0 0-.073-.092c-1.781-2.083.705-5.346.712-5.355z"/><path class="e" d="M32.656 9.588a.748.748 0 1 1 1.283.767c-.005.009-1.88 3.068-.776 4.66a5.02 5.02 0 0 1 .787 3.276 5.96 5.96 0 0 1-1.338 3.452.746.746 0 0 1-1.02-1.09 4.371 4.371 0 0 0 .864-2.474 3.565 3.565 0 0 0-.523-2.314c-1.662-2.4.717-6.267.723-6.277z"/></svg>
