<svg xmlns="http://www.w3.org/2000/svg" width="64" height="64" viewBox="0 0 64 64"><defs><style>.a,.d{fill:#fd8e00}.a,.b,.c,.e{fill-rule:evenodd}.b{fill:#ffe1a0}.c{fill:#db5400}.e{fill:#f60}</style></defs><title>time_color</title><path class="a" d="M32 51.38A19.38 19.38 0 1 0 12.62 32 19.418 19.418 0 0 0 32 51.38z"/><path class="b" d="M32 49.62A17.62 17.62 0 1 0 14.38 32 17.654 17.654 0 0 0 32 49.62z"/><path class="c" d="M32.281 14.5v4.177h-.562V14.5h.562zm0 30.823V49.5h-.562v-4.177h.562zm-17.78-13.605h4.176v.563H14.5v-.563zm30.822 0H49.5v.563h-4.177v-.563z"/><circle class="d" cx="32" cy="32" r="2.75"/><path class="e" d="M22.699 21.034l8.376 8.376a2.76 2.76 0 0 0-1.512 1.316l-8.295-8.296a14.424 14.424 0 0 1 1.431-1.396zM38.155 24.271l-5.164 5.163a2.76 2.76 0 0 1 1.477 1.352l5.117-5.117a9.924 9.924 0 0 0-1.43-1.398z"/></svg>
