<svg width="14" height="17" viewBox="0 0 14 17" fill="none" xmlns="http://www.w3.org/2000/svg">
<path fill-rule="evenodd" clip-rule="evenodd" d="M3.43752 7.5C3.43752 5.53249 5.0325 3.9375 7.00002 3.9375C8.96753 3.9375 10.5625 5.53249 10.5625 7.5C10.5625 9.46751 8.96753 11.0625 7.00002 11.0625C5.0325 11.0625 3.43752 9.46751 3.43752 7.5ZM7.00002 5.0625C5.65382 5.0625 4.56252 6.15381 4.56252 7.5C4.56252 8.84619 5.65382 9.9375 7.00002 9.9375C8.34621 9.9375 9.43752 8.84619 9.43752 7.5C9.43752 6.15381 8.34621 5.0625 7.00002 5.0625Z" fill="white"/>
<path fill-rule="evenodd" clip-rule="evenodd" d="M0.643291 6.64264C0.909037 3.41868 3.60315 0.9375 6.83804 0.9375H7.162C10.3969 0.9375 13.091 3.41868 13.3567 6.64264C13.4995 8.3745 12.9645 10.0942 11.8645 11.4394L8.26975 15.8358C7.6135 16.6383 6.38654 16.6384 5.73029 15.8358L2.13549 11.4394C1.0355 10.0942 0.500537 8.3745 0.643291 6.64264ZM6.83804 2.0625C4.18864 2.0625 1.98214 4.09461 1.76449 6.73506C1.64568 8.17644 2.09091 9.60768 3.00641 10.7273L6.6012 15.1236C6.80733 15.3757 7.19271 15.3757 7.39884 15.1236L10.9936 10.7273C11.9091 9.60767 12.3544 8.17644 12.2355 6.73506C12.0179 4.09461 9.8114 2.0625 7.162 2.0625H6.83804Z" fill="white"/>
</svg>
