<svg width="14" height="12" viewBox="0 0 14 12" fill="none" xmlns="http://www.w3.org/2000/svg">
<path fill-rule="evenodd" clip-rule="evenodd" d="M0.86913 3.56878C0.682367 5.30405 0.690692 7.30537 0.950575 9.03359C1.09437 9.98985 1.87482 10.7229 2.8382 10.8067L3.84502 10.8942C5.94438 11.0767 8.05563 11.0767 10.155 10.8942L11.1618 10.8067C12.1252 10.7229 12.9056 9.98985 13.0494 9.03359C13.3093 7.30536 13.3177 5.30416 13.1309 3.56889C13.1067 3.36771 13.0796 3.16681 13.0494 2.96624C12.9056 2.00998 12.1252 1.27689 11.1618 1.19314L10.155 1.10562C8.05562 0.923127 5.94438 0.923127 3.84502 1.10562L2.8382 1.19314C1.87482 1.27689 1.09437 2.00998 0.950575 2.96624C0.920419 3.16677 0.893271 3.36764 0.86913 3.56878ZM3.93162 2.10186C5.97336 1.92438 8.02665 1.92438 10.0684 2.10186L11.0752 2.18938C11.5781 2.2331 11.9855 2.61578 12.0606 3.11495C12.0683 3.16679 12.0759 3.21865 12.0833 3.27053L8.37597 5.33016C7.52024 5.80557 6.47972 5.80557 5.62399 5.33016L1.9167 3.27056C1.92407 3.21866 1.93166 3.16679 1.93946 3.11495C2.01452 2.61578 2.42191 2.2331 2.9248 2.18938L3.93162 2.10186ZM12.2057 4.34651C12.335 5.85834 12.2866 7.38158 12.0606 8.88488C11.9855 9.38405 11.5781 9.76673 11.0752 9.81045L10.0684 9.89797C8.02665 10.0755 5.97336 10.0755 3.93162 9.89797L2.9248 9.81045C2.42191 9.76673 2.01452 9.38405 1.93946 8.88488C1.7134 7.38159 1.66502 5.85836 1.79433 4.34653L5.13835 6.20432C6.2961 6.84752 7.70386 6.84752 8.86161 6.20432L12.2057 4.34651Z" fill="url(#paint0_linear_928_54)"/>
<defs>
<linearGradient id="paint0_linear_928_54" x1="2.98892" y1="11.0311" x2="2.98892" y2="0.96875" gradientUnits="userSpaceOnUse">
<stop stop-color="#F96E09"/>
<stop offset="1" stop-color="#ECD823"/>
</linearGradient>
</defs>
</svg>
