<svg width="5" height="5" viewBox="0 0 5 5" fill="none" xmlns="http://www.w3.org/2000/svg">
<path d="M4 0H5V1H4V0Z" fill="#7F878B"/>
<path d="M3 1H4V2H3V1Z" fill="#7F878B"/>
<path d="M2 2H3V3H2V2Z" fill="#7F878B"/>
<path d="M1 3H2V4H1V3Z" fill="#7F878B"/>
<path d="M0 4H1V5H0V4Z" fill="#7F878B"/>
<path d="M3 0H4V1H3V0Z" fill="#7F878B"/>
<path d="M4 1H5V2H4V1Z" fill="#7F878B"/>
<path d="M2 0H3V1H2V0Z" fill="#7F878B"/>
<path d="M4 2H5V3H4V2Z" fill="#7F878B"/>
<path d="M4 3H5V4H4V3Z" fill="#7F878B"/>
<path d="M1 0H2V1H1V0Z" fill="#7F878B"/>
</svg>
